<svg width="18" height="19" viewBox="0 0 18 19" fill="none" xmlns="http://www.w3.org/2000/svg">
<path d="M9.45196 14.5811C9.45196 14.5811 8.66887 14.5811 8.30883 14.5811C7.03069 14.5811 5.77954 15.0465 4.81643 15.8699V15.0555C4.81643 14.7243 4.5464 14.4469 4.22237 14.429C3.82632 14.4021 3.43028 14.3753 3.03423 14.3484C2.60218 14.3126 2.27815 13.9636 2.27815 13.534C2.27815 11.7261 2.27815 7.13484 2.27815 5.32697C2.27815 4.90632 2.60218 4.54833 3.03423 4.52148C5.11347 4.36038 7.21971 4.27983 9.30794 4.27983C11.3782 4.27983 13.4844 4.36038 15.5457 4.52148C15.9687 4.55728 16.3017 4.91527 16.3017 5.33592V10.8848C16.3017 11.2339 16.5898 11.5113 16.9318 11.5113C17.2739 11.5113 17.5619 11.2249 17.5619 10.8848V5.31802C17.5619 4.32458 16.8418 3.47434 15.8877 3.2864V3.2685L15.6357 3.2506C13.5384 3.0895 11.4052 3 9.28094 3C7.1657 3 5.02346 3.08055 2.90822 3.2506C1.81909 3.33115 1 4.24403 1 5.31802V13.5161C1 14.599 1.8461 15.503 2.93522 15.5835C3.14224 15.6014 3.34927 15.6104 3.54729 15.6283V17.3735C3.54729 17.6331 3.70031 17.8568 3.94333 17.9552C4.01534 17.991 4.09635 18 4.18636 18C4.35738 18 4.5194 17.9284 4.63641 17.8121L5.3835 17.0513C6.14859 16.2727 7.21971 15.8252 8.35384 15.8252H9.16393C9.34395 15.8252 9.51497 15.7178 9.57798 15.5567L9.46096 14.5722L9.45196 14.5811Z" fill="#A6A6A6"/>
<path d="M9.09189 8.79065H5.27546C4.92442 8.79065 4.64539 9.07705 4.64539 9.41714C4.64539 9.75724 4.93342 10.0436 5.27546 10.0436H9.09189C9.44293 10.0436 9.72196 9.75724 9.72196 9.41714C9.72196 9.07705 9.43393 8.79065 9.09189 8.79065Z" fill="#A6A6A6"/>
<path d="M13.9074 7.4302C13.9074 7.08116 13.6194 6.80371 13.2774 6.80371H5.27546C4.92442 6.80371 4.64539 7.09011 4.64539 7.4302C4.64539 7.7703 4.93342 8.05669 5.27546 8.05669H13.2774C13.6284 8.05669 13.9074 7.7703 13.9074 7.4302Z" fill="#A6A6A6"/>
<path d="M5.27546 10.7773C4.92442 10.7773 4.64539 11.0637 4.64539 11.4038C4.64539 11.7439 4.93342 12.0303 5.27546 12.0303H9.28091C9.63195 12.0303 9.91098 11.7439 9.91098 11.4038C9.91098 11.0637 9.62295 10.7773 9.28091 10.7773H5.27546Z" fill="#A6A6A6"/>
<path d="M10.524 16.9372C10.508 17.0171 10.5 17.105 10.5 17.1929C10.5 17.4087 10.5881 17.6084 10.7403 17.7603C10.8924 17.9121 11.1007 18 11.3089 18C11.4371 18 11.5572 17.968 11.6773 17.9121L16.9954 15.3071C17.3078 15.1553 17.5 14.8436 17.5 14.5C17.5 14.1564 17.3078 13.8447 16.9954 13.6929L11.6773 11.0879C11.5572 11.032 11.4371 11 11.3089 11C11.0927 11 10.8844 11.0879 10.7403 11.2317C10.5881 11.3836 10.5 11.5833 10.5 11.7991C10.5 11.887 10.5 11.9669 10.524 12.0548L10.9165 14.1644C10.9405 14.3002 11.0286 14.4201 11.1407 14.484C11.0206 14.5559 10.9405 14.6678 10.9165 14.8037L10.524 16.9132V16.9372ZM11.4931 16.9532L11.7975 15.339L14.0721 14.9795C14.3043 14.9395 14.4805 14.7477 14.4805 14.508C14.4805 14.2683 14.3124 14.0765 14.0801 14.0365L11.8055 13.6769L11.5011 12.0788L16.4748 14.508L11.5011 16.9532H11.4931Z" fill="#BBA072"/>
</svg>
