<svg width="18" height="19" viewBox="0 0 18 19" fill="none" xmlns="http://www.w3.org/2000/svg">
<path d="M12.3599 0C11.9137 0 11.4744 0.0900691 11.0626 0.261738C10.6507 0.433411 10.2769 0.68459 9.96273 1.00155L1.39908 9.59349C1.39819 9.59438 1.3973 9.59527 1.39642 9.59616C0.642233 10.3625 0.219177 11.3971 0.219177 12.4726C0.219177 13.5481 0.642259 14.58 1.39641 15.3464L3.8016 17.7928C4.176 18.1744 4.62205 18.4776 5.11498 18.6849C5.60868 18.8923 6.13863 19 6.67395 19C7.20926 19 7.74189 18.8923 8.23559 18.6849C8.72852 18.4776 9.17457 18.1744 9.54897 17.7928L17.5841 9.68697C17.6469 9.62354 17.6966 9.54833 17.7304 9.46565C17.7641 9.38297 17.7813 9.29443 17.7808 9.20512C17.7803 9.11581 17.7622 9.02747 17.7275 8.94516C17.6928 8.86286 17.6423 8.78821 17.5787 8.72548C17.4508 8.59931 17.2781 8.52902 17.0985 8.53002C16.9188 8.53102 16.7469 8.60323 16.6204 8.73083L8.58262 16.8367C8.58262 16.8376 8.58262 16.8385 8.58262 16.8394C8.33394 17.0929 8.03687 17.295 7.7097 17.4323C7.3825 17.5698 7.02893 17.6407 6.67395 17.6407C6.31896 17.6407 5.9681 17.5698 5.64087 17.4323C5.3137 17.2949 5.01661 17.0928 4.76795 16.8394L2.36543 14.3929C1.8609 13.8802 1.57794 13.1921 1.57794 12.4726C1.57794 11.7532 1.86093 11.0623 2.36543 10.5496L2.36009 10.5523L10.9237 1.95769C10.9246 1.95769 10.9255 1.95769 10.9264 1.95769C11.1144 1.76804 11.3366 1.61707 11.5831 1.51434C11.8296 1.4116 12.0929 1.35943 12.3599 1.35943C12.6269 1.35943 12.8929 1.4116 13.1394 1.51434C13.3858 1.61708 13.6081 1.76807 13.7961 1.95769C13.797 1.95858 13.7979 1.95947 13.7988 1.96036L14.7571 2.91918C14.758 2.92007 14.7589 2.92096 14.7598 2.92184C14.9494 3.10989 15.1003 3.33229 15.203 3.57886C15.3056 3.82527 15.3578 4.08883 15.3578 4.35606C15.3578 4.62329 15.3056 4.88952 15.203 5.13593C15.1003 5.3825 14.9494 5.6049 14.7598 5.79295C14.7589 5.79383 14.758 5.79472 14.7571 5.79561L7.1678 13.4181C7.16691 13.4181 7.16602 13.4181 7.16514 13.4181C7.10275 13.481 7.02793 13.531 6.94624 13.565C6.86455 13.599 6.77878 13.6184 6.68997 13.6184C6.60117 13.6184 6.51276 13.599 6.43103 13.565C6.35163 13.5319 6.2787 13.4839 6.21747 13.4234L6.21213 13.4181L5.74498 12.9373C5.74144 12.9346 5.73788 12.9319 5.7343 12.9293C5.6713 12.8668 5.6216 12.7922 5.58748 12.7103C5.55337 12.6284 5.53676 12.54 5.53676 12.4512C5.53676 12.3625 5.55336 12.2741 5.58748 12.1922C5.6216 12.1102 5.67134 12.0356 5.7343 11.9732L10.8276 6.92003C10.9548 6.79309 11.0265 6.6209 11.027 6.44117C11.0275 6.26144 10.9568 6.08885 10.8303 5.96121C10.7038 5.83361 10.5319 5.7614 10.3522 5.7604C10.1726 5.7594 9.9999 5.82969 9.87197 5.95586L4.77863 11.009C4.5884 11.1978 4.43851 11.424 4.3355 11.6714C4.2325 11.9188 4.178 12.1832 4.178 12.4512C4.178 12.7193 4.23249 12.9837 4.3355 13.2311C4.43852 13.4785 4.58844 13.7047 4.77863 13.8935L5.24312 14.3715C5.24489 14.3725 5.24667 14.3734 5.24846 14.3743C5.43722 14.5649 5.66037 14.7173 5.90782 14.8203C6.15526 14.9235 6.42219 14.9752 6.68997 14.9752C6.95776 14.9752 7.22201 14.9235 7.46946 14.8203C7.71694 14.7173 7.94007 14.5648 8.12881 14.3743L15.7154 6.75717L15.7182 6.75451C16.0339 6.44065 16.2839 6.06776 16.455 5.65681C16.6267 5.24458 16.7166 4.80243 16.7166 4.35613C16.7166 3.91071 16.6261 3.46966 16.455 3.05813V3.05546C16.2834 2.64412 16.0319 2.26891 15.7154 1.95502L14.7598 1.00155C14.4456 0.684557 14.0717 0.433408 13.6599 0.261738C13.2481 0.0900715 12.8061 0 12.3599 0Z" fill="#FFDEA8"/>
</svg>
