<svg width="18" height="19" viewBox="0 0 18 19" fill="none" xmlns="http://www.w3.org/2000/svg">
<mask id="path-1-inside-1_18_1078" fill="white">
<path fill-rule="evenodd" clip-rule="evenodd" d="M8.72579 1C7.8172 1 7.08063 1.73656 7.08063 2.64516V7.58065H6.02583C5.09871 7.58065 4.56152 8.53813 5.10407 9.22357L7.80404 12.6346C8.25775 13.2078 9.19384 13.2078 9.64755 12.6346L12.3475 9.22357C12.8901 8.53813 12.3529 7.58065 11.4258 7.58065H10.371V2.64516C10.371 1.73656 9.63439 1 8.72579 1Z"/>
</mask>
<path d="M7.08063 7.58065V8.58065H8.08063V7.58065H7.08063ZM5.10407 9.22357L5.88817 8.60293H5.88817L5.10407 9.22357ZM7.80404 12.6346L7.01995 13.2553H7.01995L7.80404 12.6346ZM9.64755 12.6346L8.86345 12.014H8.86345L9.64755 12.6346ZM12.3475 9.22357L13.1316 9.84422H13.1316L12.3475 9.22357ZM10.371 7.58065H9.37096V8.58065H10.371V7.58065ZM8.08063 2.64516C8.08063 2.28885 8.36948 2 8.72579 2V0C7.26491 0 6.08063 1.18428 6.08063 2.64516H8.08063ZM8.08063 7.58065V2.64516H6.08063V7.58065H8.08063ZM7.08063 6.58065H6.02583V8.58065H7.08063V6.58065ZM6.02583 6.58065C5.20328 6.58065 4.50234 7.01297 4.1417 7.65577C3.77504 8.30931 3.77964 9.16158 4.31998 9.84421L5.88817 8.60293C5.88092 8.59378 5.88094 8.59128 5.8828 8.5961C5.88462 8.60081 5.88643 8.60799 5.88694 8.6163C5.888 8.6334 5.88306 8.6395 5.88594 8.63436C5.88898 8.62895 5.8982 8.61643 5.91821 8.60476C5.93592 8.59443 5.9692 8.58065 6.02583 8.58065V6.58065ZM4.31998 9.84421L7.01995 13.2553L8.58814 12.014L5.88817 8.60293L4.31998 9.84421ZM7.01995 13.2553C7.87402 14.3343 9.57757 14.3343 10.4316 13.2553L8.86345 12.014C8.84989 12.0311 8.80784 12.0645 8.7258 12.0645C8.64375 12.0645 8.6017 12.0311 8.58814 12.014L7.01995 13.2553ZM10.4316 13.2553L13.1316 9.84422L11.5634 8.60293L8.86345 12.014L10.4316 13.2553ZM13.1316 9.84422C13.6719 9.16158 13.6766 8.30931 13.3099 7.65577C12.9493 7.01297 12.2483 6.58065 11.4258 6.58065V8.58065C11.4824 8.58065 11.5157 8.59443 11.5334 8.60476C11.5534 8.61643 11.5626 8.62895 11.5657 8.63436C11.5685 8.6395 11.5636 8.6334 11.5646 8.6163C11.5652 8.60799 11.567 8.60081 11.5688 8.5961C11.5706 8.59128 11.5707 8.59378 11.5634 8.60293L13.1316 9.84422ZM11.4258 6.58065H10.371V8.58065H11.4258V6.58065ZM9.37096 2.64516V7.58065H11.371V2.64516H9.37096ZM8.72579 2C9.08211 2 9.37096 2.28885 9.37096 2.64516H11.371C11.371 1.18428 10.1867 0 8.72579 0V2Z" fill="#A6A6A6" mask="url(#path-1-inside-1_18_1078)"/>
<path fill-rule="evenodd" clip-rule="evenodd" d="M12.0844 11.371H15.9516C16.2278 11.371 16.4516 11.5948 16.4516 11.871V16.2765C16.4516 16.379 16.4123 16.5553 16.2983 16.6956C16.2013 16.8148 16.0167 16.9516 15.6249 16.9516H15.6186H15.6123H15.6059H15.5994H15.5929H15.5863H15.5796H15.5729H15.5661H15.5592H15.5522H15.5452H15.5381H15.531H15.5237H15.5165H15.5091H15.5017H15.4942H15.4866H15.479H15.4713H15.4636H15.4558H15.4479H15.4399H15.4319H15.4238H15.4157H15.4075H15.3992H15.3909H15.3825H15.374H15.3655H15.3569H15.3483H15.3396H15.3308H15.322H15.3131H15.3041H15.2951H15.286H15.2769H15.2677H15.2584H15.2491H15.2397H15.2303H15.2208H15.2112H15.2016H15.192H15.1822H15.1724H15.1626H15.1527H15.1427H15.1327H15.1227H15.1125H15.1023H15.0921H15.0818H15.0715H15.061H15.0506H15.0401H15.0295H15.0189H15.0082H14.9975H14.9867H14.9758H14.9649H14.954H14.943H14.9319H14.9208H14.9097H14.8985H14.8872H14.8759H14.8646H14.8532H14.8417H14.8302H14.8186H14.807H14.7953H14.7836H14.7719H14.7601H14.7482H14.7363H14.7244H14.7124H14.7003H14.6882H14.6761H14.6639H14.6517H14.6394H14.627H14.6147H14.6023H14.5898H14.5773H14.5647H14.5521H14.5395H14.5268H14.5141H14.5013H14.4885H14.4756H14.4627H14.4497H14.4367H14.4237H14.4106H14.3975H14.3843H14.3711H14.3579H14.3446H14.3313H14.3179H14.3045H14.2911H14.2776H14.2641H14.2505H14.2369H14.2233H14.2096H14.1959H14.1821H14.1683H14.1545H14.1406H14.1267H14.1128H14.0988H14.0848H14.0707H14.0566H14.0425H14.0283H14.0141H13.9999H13.9856H13.9713H13.957H13.9426H13.9282H13.9138H13.8993H13.8848H13.8703H13.8557H13.8411H13.8265H13.8118H13.7971H13.7824H13.7676H13.7528H13.738H13.7232H13.7083H13.6934H13.6784H13.6635H13.6485H13.6334H13.6184H13.6033H13.5882H13.573H13.5578H13.5427H13.5274H13.5122H13.4969H13.4816H13.4662H13.4509H13.4355H13.4201H13.4046H13.3892H13.3737H13.3582H13.3426H13.3271H13.3115H13.2959H13.2803H13.2646H13.2489H13.2332H13.2175H13.2017H13.186H13.1702H13.1544H13.1385H13.1227H13.1068H13.0909H13.075H13.059H13.0431H13.0271H13.0111H12.9951H12.979H12.963H12.9469H12.9308H12.9147H12.8986H12.8824H12.8663H12.8501H12.8339H12.8177H12.8014H12.7852H12.7689H12.7526H12.7363H12.72H12.7037H12.6874H12.671H12.6546H12.6382H12.6218H12.6054H12.589H12.5726H12.5561H12.5396H12.5232H12.5067H12.4902H12.4737H12.4571H12.4406H12.4241H12.4075H12.3909H12.3743H12.3578H12.3412H12.3246H12.3079H12.2913H12.2747H12.258H12.2414H12.2247H12.208H12.1914H12.1747H12.158H12.1413H12.1246H12.1079H12.0911H12.0744H12.0577H12.041H12.0242H12.0075H11.9907H11.974H11.9572H11.9404H11.9237H11.9069H11.8901H11.8733H11.8566H11.8398H11.823H11.8062H11.7894H11.7726H11.7558H11.739H11.7222H11.7054H11.6886H11.6718H11.655H11.6382H11.6214H11.6046H11.5878H11.571H11.5542H11.5374H11.5206H11.5038H11.4871H11.4703H11.4535H11.4367H11.4199H11.4031H11.3864H11.3696H11.3529H11.3361H11.3193H11.3026H11.2858H11.2691H11.2524H11.2356H11.2189H11.2022H11.1855H11.1688H11.1521H11.1354H11.1187H11.1021H11.0854H11.0687H11.0521H11.0355H11.0188H11.0022H10.9856H10.969H10.9524H10.9358H10.9192H10.9027H10.8861H10.8696H10.8531H10.8365H10.82H10.8035H10.7871H10.7706H10.7541H10.7377H10.7213H10.7048H10.6884H10.6721H10.6557H10.6393H10.623H10.6066H10.5903H10.574H10.5577H10.5415H10.5252H10.509H10.4928H10.4765H10.4604H10.4442H10.428H10.4119H10.3958H10.3797H10.3636H10.3475H10.3315H10.3155H10.2995H10.2835H10.2675H10.2516H10.2356H10.2197H10.2038H10.188H10.1721H10.1563H10.1405H10.1247H10.109H10.0932H10.0775H10.0618H10.0462H10.0305H10.0149H9.99933H9.98376H9.96821H9.95269H9.9372H9.92173H9.90628H9.89086H9.87546H9.86009H9.84475H9.82943H9.81414H9.79888H9.78364H9.76844H9.75325H9.7381H9.72298H9.70788H9.69281H9.67777H9.66276H9.64778H9.63283H9.61791H9.60301H9.58815H9.57332H9.55852H9.54375H9.52901H9.51431H9.49963H9.48499H9.47037H9.4558H9.44125H9.42673H9.41225H9.39781H9.38339H9.36901H9.35467H9.34035H9.32608H9.31183H9.29763H9.28345H9.26932H9.25521H9.24115H9.22712H9.21313H9.19917H9.18525H9.17137H9.15752H9.14371H9.12994H9.11621H9.10252H9.08886H9.07525H9.06167H9.04813H9.03463H9.02118H9.00776H8.99438H8.98104H8.96774H8.95448H8.94127H8.92809H8.91496H8.90187H8.88882H8.87581H8.86285H8.84993H8.83705H8.82422H8.81142H8.79868H8.78597H8.77331H8.7607H8.74813H8.7356H8.72312H8.71069H8.6983H8.68595H8.67366H8.66141H8.6492H8.63704H8.62493H8.61287H8.60085H8.58889H8.57697H8.56509H8.55327H8.5415H8.52977H8.51809H8.50647H8.49489H8.48336H8.47188H8.46046H1.82674C1.65798 16.9516 1.41039 16.9129 1.22475 16.8182C1.05663 16.7324 1 16.6414 1 16.5115V16.5079V16.5042V16.5005V16.4968V16.493V16.4892V16.4853V16.4814V16.4775V16.4735V16.4695V16.4654V16.4613V16.4572V16.453V16.4488V16.4446V16.4403V16.436V16.4316V16.4272V16.4228V16.4183V16.4138V16.4093V16.4047V16.4001V16.3954V16.3908V16.386V16.3813V16.3765V16.3716V16.3668V16.3619V16.3569V16.352V16.3469V16.3419V16.3368V16.3317V16.3265V16.3214V16.3161V16.3109V16.3056V16.3003V16.2949V16.2895V16.2841V16.2786V16.2731V16.2676V16.262V16.2564V16.2508V16.2451V16.2394V16.2337V16.2279V16.2221V16.2163V16.2104V16.2045V16.1986V16.1926V16.1866V16.1806V16.1746V16.1685V16.1623V16.1562V16.15V16.1438V16.1375V16.1313V16.1249V16.1186V16.1122V16.1058V16.0994V16.0929V16.0864V16.0799V16.0733V16.0667V16.0601V16.0535V16.0468V16.0401V16.0333V16.0266V16.0198V16.0129V16.0061V15.9992V15.9923V15.9853V15.9783V15.9713V15.9643V15.9572V15.9501V15.943V15.9359V15.9287V15.9215V15.9143V15.907V15.8997V15.8924V15.8851V15.8777V15.8703V15.8629V15.8554V15.8479V15.8404V15.8329V15.8253V15.8177V15.8101V15.8025V15.7948V15.7871V15.7794V15.7717V15.7639V15.7561V15.7483V15.7404V15.7325V15.7246V15.7167V15.7088V15.7008V15.6928V15.6848V15.6767V15.6686V15.6605V15.6524V15.6443V15.6361V15.6279V15.6197V15.6114V15.6032V15.5949V15.5866V15.5782V15.5699V15.5615V15.5531V15.5446V15.5362V15.5277V15.5192V15.5107V15.5021V15.4936V15.485V15.4764V15.4677V15.4591V15.4504V15.4417V15.433V15.4242V15.4155V15.4067V15.3979V15.389V15.3802V15.3713V15.3624V15.3535V15.3446V15.3356V15.3266V15.3177V15.3086V15.2996V15.2905V15.2815V15.2724V15.2633V15.2541V15.245V15.2358V15.2266V15.2174V15.2082V15.1989V15.1897V15.1804V15.1711V15.1617V15.1524V15.143V15.1337V15.1243V15.1148V15.1054V15.096V15.0865V15.077V15.0675V15.058V15.0484V15.0389V15.0293V15.0197V15.0101V15.0005V14.9909V14.9812V14.9715V14.9618V14.9521V14.9424V14.9327V14.9229V14.9132V14.9034V14.8936V14.8838V14.8739V14.8641V14.8542V14.8443V14.8344V14.8245V14.8146V14.8047V14.7947V14.7848V14.7748V14.7648V14.7548V14.7448V14.7347V14.7247V14.7146V14.7046V14.6945V14.6844V14.6743V14.6641V14.654V14.6438V14.6337V14.6235V14.6133V14.6031V14.5929V14.5826V14.5724V14.5621V14.5519V14.5416V14.5313V14.521V14.5107V14.5004V14.49V14.4797V14.4693V14.459V14.4486V14.4382V14.4278V14.4174V14.407V14.3965V14.3861V14.3756V14.3652V14.3547V14.3442V14.3337V14.3232V14.3127V14.3022V14.2917V14.2811V14.2706V14.26V14.2495V14.2389V14.2283V14.2177V14.2071V14.1965V14.1859V14.1753V14.1646V14.154V14.1433V14.1327V14.122V14.1114V14.1007V14.09V14.0793V14.0686V14.0579V14.0472V14.0365V14.0257V14.015V14.0042V13.9935V13.9827V13.972V13.9612V13.9505V13.9397V13.9289V13.9181V13.9073V13.8965V13.8857V13.8749V13.8641V13.8533V13.8424V13.8316V13.8208V13.8099V13.7991V13.7883V13.7774V13.7665V13.7557V13.7448V13.734V13.7231V13.7122V13.7013V13.6905V13.6796V13.6687V13.6578V13.6469V13.636V13.6251V13.6142V13.6033V13.5924V13.5815V13.5706V13.5597V13.5488V13.5378V13.5269V13.516V13.5051V13.4942V13.4832V13.4723V13.4614V13.4504V13.4395V13.4286V13.4177V13.4067V13.3958V13.3849V13.3739V13.363V13.3521V13.3411V13.3302V13.3193V13.3083V13.2974V13.2865V13.2756V13.2646V13.2537V13.2428V13.2318V13.2209V13.21V13.1991V13.1882V13.1772V13.1663V13.1554V13.1445V13.1336V13.1227V13.1118V13.1009V13.09V13.0791V13.0682V13.0573V13.0464V13.0355V13.0246V13.0137V13.0028V12.992V12.9811V12.9702V12.9594V12.9485V12.9377V12.9268V12.916V12.9051V12.8943V12.8834V12.8726V12.8618V12.851V12.8401V12.8293V12.8185V12.8077V12.7969V12.7861V12.7754V12.7646V12.7538V12.743V12.7323V12.7215V12.7108V12.7V12.6893V12.6786V12.6679V12.6571V12.6464V12.6357V12.625V12.6143V12.6037V12.593V12.5823V12.5717V12.561V12.5504V12.5397V12.5291V12.5185V12.5079V12.4973V12.4867V12.4761V12.4655V12.455V12.4444V12.4339V12.4233V12.4128V12.4023V12.3917V12.3812V12.3708V12.3603V12.3498V12.3393V12.3289V12.3184V12.308V12.2976V12.2872V12.2768V12.2664V12.256V12.2456V12.2353V12.2249V12.2146V12.2042V12.1939V12.1836V12.1733V12.1631V12.1528V12.1425V12.1323V12.1221V12.1118V12.1016V12.0914V12.0812V12.0711V12.0609V12.0508V12.0406V12.0305V12.0204V12.0103V12.0003V11.9902V11.9801V11.9701V11.9601V11.9501V11.9401V11.9301V11.9201V11.9102V11.9002V11.8903V11.8804V11.8705C1 11.5947 1.22356 11.371 1.5 11.371H5.20354C5.26678 11.371 5.33346 11.3852 5.40169 11.4132L4.5505 10.371H1.5C0.671875 10.371 0 11.0418 0 11.8705V11.8804V11.8903V11.9002V11.9102V11.9201V11.9301V11.9401V11.9501V11.9601V11.9701V11.9801V11.9902V12.0003V12.0103V12.0204V12.0305V12.0406V12.0508V12.0609V12.0711V12.0812V12.0914V12.1016V12.1118V12.1221V12.1323V12.1425V12.1528V12.1631V12.1733V12.1836V12.1939V12.2042V12.2146V12.2249V12.2353V12.2456V12.256V12.2664V12.2768V12.2872V12.2976V12.308V12.3184V12.3289V12.3393V12.3498V12.3603V12.3708V12.3812V12.3917V12.4023V12.4128V12.4233V12.4339V12.4444V12.455V12.4655V12.4761V12.4867V12.4973V12.5079V12.5185V12.5291V12.5397V12.5504V12.561V12.5717V12.5823V12.593V12.6037V12.6143V12.625V12.6357V12.6464V12.6571V12.6679V12.6786V12.6893V12.7V12.7108V12.7215V12.7323V12.743V12.7538V12.7646V12.7754V12.7861V12.7969V12.8077V12.8185V12.8293V12.8401V12.851V12.8618V12.8726V12.8834V12.8943V12.9051V12.916V12.9268V12.9377V12.9485V12.9594V12.9702V12.9811V12.992V13.0028V13.0137V13.0246V13.0355V13.0464V13.0573V13.0682V13.0791V13.09V13.1009V13.1118V13.1227V13.1336V13.1445V13.1554V13.1663V13.1772V13.1882V13.1991V13.21V13.2209V13.2318V13.2428V13.2537V13.2646V13.2756V13.2865V13.2974V13.3083V13.3193V13.3302V13.3411V13.3521V13.363V13.3739V13.3849V13.3958V13.4067V13.4177V13.4286V13.4395V13.4504V13.4614V13.4723V13.4832V13.4942V13.5051V13.516V13.5269V13.5378V13.5488V13.5597V13.5706V13.5815V13.5924V13.6033V13.6142V13.6251V13.636V13.6469V13.6578V13.6687V13.6796V13.6905V13.7013V13.7122V13.7231V13.734V13.7448V13.7557V13.7665V13.7774V13.7883V13.7991V13.8099V13.8208V13.8316V13.8424V13.8533V13.8641V13.8749V13.8857V13.8965V13.9073V13.9181V13.9289V13.9397V13.9505V13.9612V13.972V13.9827V13.9935V14.0042V14.015V14.0257V14.0365V14.0472V14.0579V14.0686V14.0793V14.09V14.1007V14.1114V14.122V14.1327V14.1433V14.154V14.1646V14.1753V14.1859V14.1965V14.2071V14.2177V14.2283V14.2389V14.2495V14.26V14.2706V14.2811V14.2917V14.3022V14.3127V14.3232V14.3337V14.3442V14.3547V14.3652V14.3756V14.3861V14.3965V14.407V14.4174V14.4278V14.4382V14.4486V14.459V14.4693V14.4797V14.49V14.5004V14.5107V14.521V14.5313V14.5416V14.5519V14.5621V14.5724V14.5826V14.5929V14.6031V14.6133V14.6235V14.6337V14.6438V14.654V14.6641V14.6743V14.6844V14.6945V14.7046V14.7146V14.7247V14.7347V14.7448V14.7548V14.7648V14.7748V14.7848V14.7947V14.8047V14.8146V14.8245V14.8344V14.8443V14.8542V14.8641V14.8739V14.8838V14.8936V14.9034V14.9132V14.9229V14.9327V14.9424V14.9521V14.9618V14.9715V14.9812V14.9909V15.0005V15.0101V15.0197V15.0293V15.0389V15.0484V15.058V15.0675V15.077V15.0865V15.096V15.1054V15.1148V15.1243V15.1337V15.143V15.1524V15.1617V15.1711V15.1804V15.1897V15.1989V15.2082V15.2174V15.2266V15.2358V15.245V15.2541V15.2633V15.2724V15.2815V15.2905V15.2996V15.3086V15.3177V15.3266V15.3356V15.3446V15.3535V15.3624V15.3713V15.3802V15.389V15.3979V15.4067V15.4155V15.4242V15.433V15.4417V15.4504V15.4591V15.4677V15.4764V15.485V15.4936V15.5021V15.5107V15.5192V15.5277V15.5362V15.5446V15.5531V15.5615V15.5699V15.5782V15.5866V15.5949V15.6032V15.6114V15.6197V15.6279V15.6361V15.6443V15.6524V15.6605V15.6686V15.6767V15.6848V15.6928V15.7008V15.7088V15.7167V15.7246V15.7325V15.7404V15.7483V15.7561V15.7639V15.7717V15.7794V15.7871V15.7948V15.8025V15.8101V15.8177V15.8253V15.8329V15.8404V15.8479V15.8554V15.8629V15.8703V15.8777V15.8851V15.8924V15.8997V15.907V15.9143V15.9215V15.9287V15.9359V15.943V15.9501V15.9572V15.9643V15.9713V15.9783V15.9853V15.9923V15.9992V16.0061V16.0129V16.0198V16.0266V16.0333V16.0401V16.0468V16.0535V16.0601V16.0667V16.0733V16.0799V16.0864V16.0929V16.0994V16.1058V16.1122V16.1186V16.1249V16.1313V16.1375V16.1438V16.15V16.1562V16.1623V16.1685V16.1746V16.1806V16.1866V16.1926V16.1986V16.2045V16.2104V16.2163V16.2221V16.2279V16.2337V16.2394V16.2451V16.2508V16.2564V16.262V16.2676V16.2731V16.2786V16.2841V16.2895V16.2949V16.3003V16.3056V16.3109V16.3161V16.3214V16.3265V16.3317V16.3368V16.3419V16.3469V16.352V16.3569V16.3619V16.3668V16.3716V16.3765V16.3813V16.386V16.3908V16.3954V16.4001V16.4047V16.4093V16.4138V16.4183V16.4228V16.4272V16.4316V16.436V16.4403V16.4446V16.4488V16.453V16.4572V16.4613V16.4654V16.4695V16.4735V16.4775V16.4814V16.4853V16.4892V16.493V16.4968V16.5005V16.5042V16.5079V16.5115C0 17.1337 0.385614 17.5127 0.770305 17.709C1.13748 17.8963 1.55325 17.9516 1.82674 17.9516H8.46046H8.47188H8.48336H8.49489H8.50647H8.51809H8.52977H8.5415H8.55327H8.56509H8.57697H8.58889H8.60085H8.61287H8.62493H8.63704H8.6492H8.66141H8.67366H8.68595H8.6983H8.71069H8.72312H8.7356H8.74813H8.7607H8.77331H8.78597H8.79868H8.81142H8.82422H8.83705H8.84993H8.86285H8.87581H8.88882H8.90187H8.91496H8.92809H8.94127H8.95448H8.96774H8.98104H8.99438H9.00776H9.02118H9.03463H9.04813H9.06167H9.07525H9.08886H9.10252H9.11621H9.12994H9.14371H9.15752H9.17137H9.18525H9.19917H9.21313H9.22712H9.24115H9.25521H9.26932H9.28345H9.29763H9.31183H9.32608H9.34035H9.35467H9.36901H9.38339H9.39781H9.41225H9.42673H9.44125H9.4558H9.47037H9.48499H9.49963H9.51431H9.52901H9.54375H9.55852H9.57332H9.58815H9.60301H9.61791H9.63283H9.64778H9.66276H9.67777H9.69281H9.70788H9.72298H9.7381H9.75325H9.76844H9.78364H9.79888H9.81414H9.82943H9.84475H9.86009H9.87546H9.89086H9.90628H9.92173H9.9372H9.95269H9.96821H9.98376H9.99933H10.0149H10.0305H10.0462H10.0618H10.0775H10.0932H10.109H10.1247H10.1405H10.1563H10.1721H10.188H10.2038H10.2197H10.2356H10.2516H10.2675H10.2835H10.2995H10.3155H10.3315H10.3475H10.3636H10.3797H10.3958H10.4119H10.428H10.4442H10.4604H10.4765H10.4928H10.509H10.5252H10.5415H10.5577H10.574H10.5903H10.6066H10.623H10.6393H10.6557H10.6721H10.6884H10.7048H10.7213H10.7377H10.7541H10.7706H10.7871H10.8035H10.82H10.8365H10.8531H10.8696H10.8861H10.9027H10.9192H10.9358H10.9524H10.969H10.9856H11.0022H11.0188H11.0355H11.0521H11.0687H11.0854H11.1021H11.1187H11.1354H11.1521H11.1688H11.1855H11.2022H11.2189H11.2356H11.2524H11.2691H11.2858H11.3026H11.3193H11.3361H11.3529H11.3696H11.3864H11.4031H11.4199H11.4367H11.4535H11.4703H11.4871H11.5038H11.5206H11.5374H11.5542H11.571H11.5878H11.6046H11.6214H11.6382H11.655H11.6718H11.6886H11.7054H11.7222H11.739H11.7558H11.7726H11.7894H11.8062H11.823H11.8398H11.8566H11.8733H11.8901H11.9069H11.9237H11.9404H11.9572H11.974H11.9907H12.0075H12.0242H12.041H12.0577H12.0744H12.0911H12.1079H12.1246H12.1413H12.158H12.1747H12.1914H12.208H12.2247H12.2414H12.258H12.2747H12.2913H12.3079H12.3246H12.3412H12.3578H12.3743H12.3909H12.4075H12.4241H12.4406H12.4571H12.4737H12.4902H12.5067H12.5232H12.5396H12.5561H12.5726H12.589H12.6054H12.6218H12.6382H12.6546H12.671H12.6874H12.7037H12.72H12.7363H12.7526H12.7689H12.7852H12.8014H12.8177H12.8339H12.8501H12.8663H12.8824H12.8986H12.9147H12.9308H12.9469H12.963H12.979H12.9951H13.0111H13.0271H13.0431H13.059H13.075H13.0909H13.1068H13.1227H13.1385H13.1544H13.1702H13.186H13.2017H13.2175H13.2332H13.2489H13.2646H13.2803H13.2959H13.3115H13.3271H13.3426H13.3582H13.3737H13.3892H13.4046H13.4201H13.4355H13.4509H13.4662H13.4816H13.4969H13.5122H13.5274H13.5427H13.5578H13.573H13.5882H13.6033H13.6184H13.6334H13.6485H13.6635H13.6784H13.6934H13.7083H13.7232H13.738H13.7528H13.7676H13.7824H13.7971H13.8118H13.8265H13.8411H13.8557H13.8703H13.8848H13.8993H13.9138H13.9282H13.9426H13.957H13.9713H13.9856H13.9999H14.0141H14.0283H14.0425H14.0566H14.0707H14.0848H14.0988H14.1128H14.1267H14.1406H14.1545H14.1683H14.1821H14.1959H14.2096H14.2233H14.2369H14.2505H14.2641H14.2776H14.2911H14.3045H14.3179H14.3313H14.3446H14.3579H14.3711H14.3843H14.3975H14.4106H14.4237H14.4367H14.4497H14.4627H14.4756H14.4885H14.5013H14.5141H14.5268H14.5395H14.5521H14.5647H14.5773H14.5898H14.6023H14.6147H14.627H14.6394H14.6517H14.6639H14.6761H14.6882H14.7003H14.7124H14.7244H14.7363H14.7482H14.7601H14.7719H14.7836H14.7953H14.807H14.8186H14.8302H14.8417H14.8532H14.8646H14.8759H14.8872H14.8985H14.9097H14.9208H14.9319H14.943H14.954H14.9649H14.9758H14.9867H14.9975H15.0082H15.0189H15.0295H15.0401H15.0506H15.061H15.0715H15.0818H15.0921H15.1023H15.1125H15.1227H15.1327H15.1427H15.1527H15.1626H15.1724H15.1822H15.192H15.2016H15.2112H15.2208H15.2303H15.2397H15.2491H15.2584H15.2677H15.2769H15.286H15.2951H15.3041H15.3131H15.322H15.3308H15.3396H15.3483H15.3569H15.3655H15.374H15.3825H15.3909H15.3992H15.4075H15.4157H15.4238H15.4319H15.4399H15.4479H15.4558H15.4636H15.4713H15.479H15.4866H15.4942H15.5017H15.5091H15.5165H15.5237H15.531H15.5381H15.5452H15.5522H15.5592H15.5661H15.5729H15.5796H15.5863H15.5929H15.5994H15.6059H15.6123H15.6186H15.6249C16.2944 17.9516 16.7732 17.6967 17.0742 17.3263C17.3582 16.977 17.4516 16.5657 17.4516 16.2765V11.871C17.4516 11.0425 16.78 10.371 15.9516 10.371H12.9011L12.0844 11.371Z" fill="#A6A6A6"/>
<path fill-rule="evenodd" clip-rule="evenodd" d="M2.6936 15.258C2.6936 14.9551 2.93912 14.7096 3.24199 14.7096H4.33876C4.64163 14.7096 4.88715 14.9551 4.88715 15.258C4.88715 15.5608 4.64163 15.8064 4.33876 15.8064H3.24199C2.93912 15.8064 2.6936 15.5608 2.6936 15.258ZM5.98393 15.258C5.98393 14.9551 6.22945 14.7096 6.53231 14.7096H12.0162C12.319 14.7096 12.5646 14.9551 12.5646 15.258C12.5646 15.5608 12.319 15.8064 12.0162 15.8064H6.53231C6.22945 15.8064 5.98393 15.5608 5.98393 15.258Z" fill="#BBA072"/>
<circle cx="14.7582" cy="15.258" r="1.09677" fill="#BBA072"/>
</svg>
