<svg width="8" height="13" viewBox="0 0 8 13" fill="none" xmlns="http://www.w3.org/2000/svg">
<path d="M0.331096 1.86209L5.2165 6.5L0.331096 11.1379C0.117774 11.3437 -0.00122903 11.6212 9.52409e-06 11.91C0.00124808 12.1987 0.122628 12.4753 0.337709 12.6794C0.552791 12.8836 0.844147 12.9988 1.14832 13C1.45248 13.0012 1.74482 12.8882 1.96164 12.6857L7.66232 7.27526C7.87853 7.07001 8 6.79163 8 6.50137C8 6.2111 7.87853 5.93273 7.66232 5.72747L1.96164 0.314292C1.74482 0.111795 1.45248 -0.00116641 1.14831 9.48655e-06C0.844147 0.00118443 0.55279 0.116405 0.337709 0.32057C0.122628 0.524734 0.00124758 0.801305 9.05113e-06 1.09004C-0.00122948 1.37877 0.117774 1.65627 0.331096 1.86209Z" fill="white"/>
</svg>
