<svg width="13" height="19" viewBox="0 0 13 19" fill="none" xmlns="http://www.w3.org/2000/svg">
<path d="M6.5 4C9.5377 4 12 6.4623 11.9998 9.5C12 12.5379 9.53753 15.0004 6.49982 15C3.46195 15.0002 0.999823 12.5379 1 9.50018C0.99947 6.4623 3.46195 4 6.5 4Z" stroke="white" stroke-width="0.5" stroke-miterlimit="10"/>
<path d="M6.49982 4.01996V14.98" stroke="white" stroke-width="0.5" stroke-miterlimit="10"/>
<path d="M11.9798 9.5H1.01978" stroke="white" stroke-width="0.5" stroke-miterlimit="10"/>
<path d="M6.14624 4.01996C6.14624 4.01996 3.67139 5.96448 3.67139 9.49998C3.67139 13.0355 6.14624 14.98 6.14624 14.98" stroke="white" stroke-width="0.5" stroke-miterlimit="10"/>
<path d="M6.85339 4.01996C6.85339 4.01996 9.32824 5.96448 9.32824 9.49998C9.32824 13.0355 6.85339 14.98 6.85339 14.98" stroke="white" stroke-width="0.5" stroke-miterlimit="10"/>
<path d="M2.2572 5.96448C2.2572 5.96448 3.14108 7.73223 6.4998 7.73223C9.85853 7.73223 10.7424 5.96448 10.7424 5.96448" stroke="white" stroke-width="0.5" stroke-miterlimit="10"/>
<path d="M2.2572 13.0355C2.2572 13.0355 3.14108 11.2678 6.4998 11.2678C9.85853 11.2678 10.7424 13.0355 10.7424 13.0355" stroke="white" stroke-width="0.5" stroke-miterlimit="10"/>
</svg>
