<?xml version="1.0" encoding="UTF-8"?>
<svg id="Layer_1" xmlns="http://www.w3.org/2000/svg" version="1.1" viewBox="0 0 512 512">
  <!-- Generator: Adobe Illustrator 29.2.1, SVG Export Plug-In . SVG Version: 2.1.0 Build 116)  -->
  <defs>
    <style>
      .st0, .st1, .st2 {
        fill: #3eda41;
      }

      .st1 {
        opacity: .6;
      }

      .st2 {
        opacity: .3;
      }

      .st3 {
        fill: #2d2d2d;
      }
    </style>
  </defs>
  <g id="Page-1">
    <g id="_018---Rating">
      <path id="Shape" class="st3" d="M304.9,179.4c.5-10.5,2.6-20.9,6.2-30.7,2.6-6.6,4.2-13.6,4.5-20.7v-17.1c0-13.7-5.5-26.7-15.2-36.3s-22.8-15-36.5-14.9c-13.6,0-24.8,10.5-25.6,24-.4,27.1-8.7,53.4-24.1,75.8-6.9,10.6-12.7,21.9-17.6,33.6-6.6,18.7-24.8,30.8-44.6,29.5-3.4-10.5-13.2-17.7-24.2-17.8h-25.6c-14.1,0-25.6,11.5-25.6,25.6v136.5c0,14.1,11.5,25.6,25.6,25.6h25.6c10.6,0,20.1-6.6,23.9-16.5,12,2.4,23.7,6.3,34.8,11.5,29.7,14,62.1,21.5,94.9,22.1,21.3-.2,42.5-3.8,62.6-10.8,8.7,7.4,19.8,11.2,31.2,10.8,21.2,0,42.7-11.7,42.7-34.1,0-8-2.7-15.8-7.6-22.1,10.8-5.5,17.2-17,16.2-29.1,0-5.6-1.5-11.2-4.3-16.1,8.8-5.9,13.7-16,12.9-26.5-.6-10.4-4.2-20.5-10.4-28.9,6.2-5.8,10-13.8,10.4-22.4,0-8.7,0-31.8-31.5-42.2-17.5-5.8-61.8-8-98.8-8.7h0ZM128,375.5h-25.6c-4.7,0-8.5-3.8-8.5-8.5v-136.5c0-4.7,3.8-8.5,8.5-8.5h25.6c4.7,0,8.5,3.8,8.5,8.5v136.5c0,4.7-3.8,8.5-8.5,8.5ZM418.1,230.4c-.8,5.7-4.3,10.7-9.5,13.3-5,2.6-10.5,3.9-16.1,3.7-23.5,0-42.7-7.7-42.7-17.1s-3.8-8.5-8.5-8.5-8.5,3.8-8.5,8.5c0,23.6,30,34.1,59.7,34.1,6,0,11.9-.9,17.6-2.9,4.5,5.8,7.3,12.7,8,19.9,0,9.1-2.5,12.4-11.2,14.8-7.5,1.7-15.2,2.5-22.9,2.2-28.3,0-42.7-5.7-42.7-17.1s-3.8-8.5-8.5-8.5-8.5,3.8-8.5,8.5c0,22.6,20.1,34.1,59.7,34.1,7.4,0,14.8-.5,22.1-1.7,2.2,3,3.5,6.5,3.5,10.2,0,9.7-2.6,14.9-16.8,16.5-2.9.4-5.9.5-8.8.5-26,0-29.1-.4-35-12.4-2.1-4.2-7.2-5.9-11.5-3.8s-5.9,7.2-3.8,11.5c10.9,21.8,24,21.8,50.3,21.8s5.4-.1,7.7-.3c5.6,4.1,9,10.5,9.4,17.4,0,13.5-16.7,17.1-25.6,17.1-8.4.8-16.6-2.5-22.1-8.9-2-2.3-3.2-5.2-3.5-8.2,0-4.7-3.8-8.5-8.5-8.5s-8.5,3.8-8.5,8.5c0,2.9.6,5.9,1.6,8.6-17.1,5.4-34.9,8.3-52.8,8.5-30.6-.5-60.8-7.6-88.4-20.8-12.6-5.9-25.9-10.2-39.6-12.7v-119.3c26.3.7,50.1-15.6,59.1-40.3,4.5-10.8,10-21.2,16.3-31,16.8-24.8,26-53.8,26.5-83.7.4-4.6,4.3-8.1,9-7.9,18.9,0,34.1,15.3,34.1,34.1v17.1c-.4,5.3-1.7,10.5-3.7,15.4-5.3,14.1-7.7,29.2-7,44.2h0c0,.2,0,.4,0,.6.3,6.2,1.1,12.3,2.3,18.4,7.2,36.1-12.7,50.4-13.4,51-3.9,2.6-5,7.9-2.4,11.8s7.9,5,11.8,2.4c1.2-.9,30.2-20.8,20.7-68.5-.5-2.3-.7-4.4-1-6.6,46.9,1,80.3,3.8,92.4,7.8,19.8,6.6,19.8,17.8,19.8,26h0Z"/>
      <path id="Shape-2" class="st0" d="M375.5,119.5c4.7,0,8.5-3.8,8.5-8.5v-8.5c0-4.7-3.8-8.5-8.5-8.5s-8.5,3.8-8.5,8.5v8.5c0,4.7,3.8,8.5,8.5,8.5Z"/>
      <path id="Shape-3" class="st0" d="M392.5,136.5h8.5c4.7,0,8.5-3.8,8.5-8.5s-3.8-8.5-8.5-8.5h-8.5c-4.7,0-8.5,3.8-8.5,8.5s3.8,8.5,8.5,8.5Z"/>
      <path id="Shape-4" class="st0" d="M375.5,136.5c-4.7,0-8.5,3.8-8.5,8.5v8.5c0,4.7,3.8,8.5,8.5,8.5s8.5-3.8,8.5-8.5v-8.5c0-4.7-3.8-8.5-8.5-8.5Z"/>
      <path id="Shape-5" class="st0" d="M349.9,136.5h8.5c4.7,0,8.5-3.8,8.5-8.5s-3.8-8.5-8.5-8.5h-8.5c-4.7,0-8.5,3.8-8.5,8.5s3.8,8.5,8.5,8.5Z"/>
      <path id="Shape-6" class="st1" d="M153.6,145.1c4.7,0,8.5-3.8,8.5-8.5v-8.5c0-4.7-3.8-8.5-8.5-8.5s-8.5,3.8-8.5,8.5v8.5c0,4.7,3.8,8.5,8.5,8.5Z"/>
      <path id="Shape-7" class="st1" d="M170.7,162.1h8.5c4.7,0,8.5-3.8,8.5-8.5s-3.8-8.5-8.5-8.5h-8.5c-4.7,0-8.5,3.8-8.5,8.5s3.8,8.5,8.5,8.5Z"/>
      <path id="Shape-8" class="st1" d="M153.6,162.1c-4.7,0-8.5,3.8-8.5,8.5v8.5c0,4.7,3.8,8.5,8.5,8.5s8.5-3.8,8.5-8.5v-8.5c0-4.7-3.8-8.5-8.5-8.5Z"/>
      <path id="Shape-9" class="st1" d="M128,162.1h8.5c4.7,0,8.5-3.8,8.5-8.5s-3.8-8.5-8.5-8.5h-8.5c-4.7,0-8.5,3.8-8.5,8.5s3.8,8.5,8.5,8.5Z"/>
      <circle id="Oval" class="st2" cx="196.3" cy="110.9" r="8.5"/>
      <circle id="Oval-2" class="st2" cx="435.2" cy="162.1" r="8.5"/>
      <circle id="Oval-3" class="st2" cx="187.7" cy="418.1" r="8.5"/>
      <circle id="Oval-4" class="st2" cx="221.9" cy="443.7" r="8.5"/>
      <circle id="Oval-5" class="st2" cx="93.9" cy="179.2" r="8.5"/>
    </g>
  </g>
</svg>