<svg width="18" height="19" viewBox="0 0 18 19" fill="none" xmlns="http://www.w3.org/2000/svg">
<path d="M16.2534 7.76749C16.3307 7.54313 16.365 7.31878 16.365 7.08642C16.365 6.2451 15.8759 5.47589 15.095 5.06725C14.9491 3.8894 13.885 3 12.6236 3H5.12357C3.39874 3 2 4.30605 2 5.91658V8.83316C2 10.4437 3.39874 11.7497 5.12357 11.7497H5.86156L9.15675 16.1486C9.83467 17.0541 11.1733 17.2704 12.143 16.6374C12.984 16.0926 13.2843 15.0589 12.8724 14.1856L11.9628 12.2706C11.877 12.0863 11.9628 11.8619 12.1688 11.7818C12.2203 11.7578 12.2717 11.7497 12.3318 11.7497H14.5029C15.8844 11.7497 17 10.7081 17 9.42609C17 8.80111 16.734 8.20818 16.262 7.76749H16.2534ZM5.12357 6.14895V9.85076C5.12357 10.0991 5.16648 10.3475 5.23513 10.5879H5.12357C4.08524 10.5879 3.25286 9.80268 3.25286 8.84117V5.92459C3.25286 4.95507 4.09382 4.17785 5.12357 4.17785H5.87014C5.38959 4.73873 5.12357 5.43583 5.12357 6.15696V6.14895ZM15.5498 10.035C15.3181 10.3716 14.9233 10.5799 14.4943 10.5799H12.3232C11.4136 10.5799 10.6756 11.269 10.6756 12.1183C10.6756 12.3347 10.7271 12.551 10.8215 12.7433L11.7311 14.6583C11.8598 14.9147 11.8341 15.2112 11.6625 15.4516C11.3707 15.8362 10.7958 15.9243 10.3839 15.6519C10.3066 15.6038 10.2466 15.5397 10.1865 15.4756L6.71968 10.8523C6.49657 10.5559 6.37643 10.2113 6.38501 9.85076V6.14895C6.38501 5.46788 6.74542 4.83488 7.35469 4.4663C7.66362 4.274 8.02403 4.16984 8.39302 4.16984H12.6322C13.3101 4.16984 13.8678 4.67463 13.885 5.31564C13.885 5.33166 13.8764 5.39576 13.8764 5.41179C13.8593 5.66819 14.0309 5.90857 14.2969 5.98869C14.7946 6.14895 15.1379 6.58964 15.1379 7.08642C15.1379 7.28673 15.0778 7.47903 14.9662 7.65531C14.8032 7.92774 14.889 8.27228 15.1722 8.43253C15.7557 8.77707 15.9359 9.49019 15.5669 10.035H15.5498Z" fill="#DB3E3E"/>
<path d="M13.3318 8H10.6682C10.3021 8 10 8.22603 10 8.5C10 8.77397 10.3021 9 10.6682 9H13.3318C13.6979 9 14 8.77397 14 8.5C14 8.22603 13.6979 8 13.3318 8Z" fill="#DB3E3E"/>
<path d="M13 5.5C13 5.22603 12.6979 5 12.3318 5H9.66819C9.30206 5 9 5.22603 9 5.5C9 5.77397 9.30206 6 9.66819 6H12.3318C12.6979 6 13 5.77397 13 5.5Z" fill="#DB3E3E"/>
</svg>
