<svg width="15" height="19" viewBox="0 0 15 19" fill="none" xmlns="http://www.w3.org/2000/svg">
<path d="M11.5468 6.24832L7.57143 9.91237L3.59608 6.24832C3.41966 6.08833 3.1818 5.99908 2.93432 6.00001C2.68683 6.00094 2.44977 6.09197 2.27477 6.25328C2.09978 6.41459 2.00102 6.63311 2.00001 6.86124C1.999 7.08936 2.09583 7.30861 2.26939 7.47123L6.90692 11.7467C7.08285 11.9089 7.32146 12 7.57026 12C7.81905 12 8.05766 11.9089 8.2336 11.7467L12.8735 7.47123C13.047 7.30861 13.1439 7.08936 13.1428 6.86124C13.1418 6.63311 13.0431 6.41459 12.8681 6.25328C12.6931 6.09197 12.456 6.00094 12.2085 6.00001C11.9611 5.99908 11.7232 6.08833 11.5468 6.24832Z" fill="white"/>
</svg>
