<svg width="14" height="19" viewBox="0 0 14 19" fill="none" xmlns="http://www.w3.org/2000/svg">
<path fill-rule="evenodd" clip-rule="evenodd" d="M1.5 9.25C1.5 6.3505 3.8505 4 6.75 4C9.6495 4 12 6.3505 12 9.25C12 10.4293 11.6112 11.5177 10.9548 12.3941L12.7803 14.2197C13.0732 14.5126 13.0732 14.9874 12.7803 15.2803C12.4874 15.5732 12.0126 15.5732 11.7197 15.2803L9.8941 13.4548C9.0177 14.1112 7.9293 14.5 6.75 14.5C3.8505 14.5 1.5 12.1495 1.5 9.25ZM6.75 5.5C4.67893 5.5 3 7.17893 3 9.25C3 11.3211 4.67893 13 6.75 13C8.8211 13 10.5 11.3211 10.5 9.25C10.5 7.17893 8.8211 5.5 6.75 5.5Z" fill="white"/>
</svg>
