<svg width="19" height="19" viewBox="0 0 19 19" fill="none" xmlns="http://www.w3.org/2000/svg">
<path d="M2.56903 5.32053H9.39741C9.71169 5.32053 9.96644 5.1114 9.96644 4.85338C9.96644 4.59537 9.71169 4.38623 9.39741 4.38623H2.56903C2.25475 4.38623 2 4.59537 2 4.85338C2 5.1114 2.25478 5.32053 2.56903 5.32053Z" fill="white"/>
<path d="M2.56903 8.59055H9.39741C9.71169 8.59055 9.96644 8.38142 9.96644 8.1234C9.96644 7.86539 9.71169 7.65625 9.39741 7.65625H2.56903C2.25475 7.65625 2 7.86539 2 8.1234C2 8.38142 2.25478 8.59055 2.56903 8.59055Z" fill="white"/>
<path d="M2.56903 12.3279H9.39741C9.71169 12.3279 9.96644 12.1187 9.96644 11.8607C9.96644 11.6027 9.71169 11.3936 9.39741 11.3936H2.56903C2.25475 11.3936 2 11.6027 2 11.8607C2 12.1187 2.25478 12.3279 2.56903 12.3279Z" fill="white"/>
<path d="M2.56903 15.5979H9.39741C9.71169 15.5979 9.96644 15.3887 9.96644 15.1307C9.96644 14.8727 9.71169 14.6636 9.39741 14.6636H2.56903C2.25475 14.6636 2 14.8727 2 15.1307C2 15.3887 2.25478 15.5979 2.56903 15.5979Z" fill="white"/>
<path d="M11.9517 14.4805L14.2062 16.6635C14.6172 17.0634 15.3453 17.114 15.8324 16.7766C15.8821 16.7422 15.9282 16.7043 15.9702 16.6635L18.2247 14.4809C18.6417 14.0785 18.5824 13.4747 18.0922 13.1323C17.8831 12.9863 17.6178 12.9055 17.3433 12.9043H16.9603L17.2738 11.6014C17.3936 11.0781 16.974 10.5741 16.3365 10.4757C16.2703 10.4655 16.2031 10.46 16.1358 10.4592H14.0383C13.3891 10.4671 12.8707 10.9056 12.8803 11.4386C12.8813 11.4934 12.888 11.548 12.9003 11.6019L13.2138 12.9043H12.8309C12.1876 12.9068 11.6685 13.3369 11.6715 13.865C11.6728 14.0907 11.7712 14.3087 11.9494 14.4805H11.9517ZM13.9092 13.8386C14.2234 13.8386 14.4782 13.6295 14.4782 13.3715C14.4782 13.341 14.4746 13.3107 14.4674 13.2808L14.0383 11.3935L16.1563 11.4206L15.7079 13.2808C15.6469 13.5339 15.8474 13.7797 16.1557 13.8297C16.192 13.8356 16.229 13.8386 16.2661 13.8386L17.3638 13.8587C17.3638 13.8652 17.3638 13.868 17.3564 13.876L15.0751 16.059L12.8337 13.8381L13.9092 13.8386Z" fill="white"/>
<path d="M18.3927 6.52726C18.5864 6.18811 18.5195 5.78723 18.222 5.50326L15.9692 3.32073C15.5272 2.92082 14.774 2.8908 14.2869 3.25366C14.2584 3.27492 14.2311 3.29728 14.2052 3.32073L11.9518 5.50326C11.5348 5.90571 11.5941 6.50954 12.0843 6.8519C12.2935 6.99794 12.5587 7.0787 12.8333 7.0799H13.2162L12.9027 8.38279C12.7823 8.90553 13.2008 9.40941 13.8376 9.50827C13.9046 9.51867 13.9726 9.52427 14.0407 9.52497H16.1393C16.7882 9.51735 17.3067 9.07934 17.2975 8.54661C17.2965 8.49149 17.2898 8.43651 17.2774 8.38232L16.9639 7.0799H17.3468C17.7973 7.08016 18.2064 6.86402 18.3927 6.52726ZM16.2662 6.1456C15.9519 6.1456 15.6972 6.35473 15.6972 6.61275C15.6972 6.64317 15.7008 6.67354 15.708 6.70338L16.1371 8.59067L14.0191 8.56357L14.4675 6.70338C14.5285 6.45027 14.328 6.20452 14.0197 6.15447C13.9833 6.14857 13.9464 6.1456 13.9093 6.1456L12.8196 6.10776L15.1009 3.92476L17.3559 6.10776L17.3423 6.1456H16.2662Z" fill="white"/>
</svg>
