<svg width="24" height="25" viewBox="0 0 24 25" fill="none" xmlns="http://www.w3.org/2000/svg">
<path fill-rule="evenodd" clip-rule="evenodd" d="M22.6181 10.1998C17.9547 7.75326 8.84678 2.97511 3.72702 0.289069C2.8032 -0.195058 1.68269 -0.0627938 0.893397 0.623629C0.103253 1.31005 -0.197306 2.41317 0.131353 3.41514L3.04757 12.2859C3.10632 12.464 3.10631 12.6568 3.04671 12.8349L0.147529 21.5794C-0.184536 22.5805 0.115174 23.6862 0.904466 24.3744C1.69461 25.0625 2.81597 25.1957 3.74064 24.7107L22.6181 14.8077C23.467 14.3625 24 13.4737 24 12.5038C24 11.5338 23.467 10.6451 22.6181 10.1998ZM4.66702 13.3683C4.66531 13.3743 4.66276 13.3804 4.66106 13.3873L1.76188 22.131C1.65119 22.4647 1.75081 22.8329 2.0139 23.0629C2.277 23.292 2.65079 23.3361 2.95901 23.1744L21.8365 13.2715C22.1192 13.1236 22.2971 12.8271 22.2971 12.5038C22.2971 12.1804 22.1192 11.8839 21.8365 11.7361L2.94539 1.82531C2.63717 1.66365 2.26423 1.70774 2.00113 1.93683C1.73718 2.16593 1.63672 2.53334 1.74655 2.86704L4.6304 11.6393H14.5123C14.9823 11.6393 15.3638 12.0266 15.3638 12.5038C15.3638 12.981 14.9823 13.3683 14.5123 13.3683H4.66702Z" fill="#382E23"/>
</svg>
