<?xml version="1.0" encoding="UTF-8"?>
<svg xmlns="http://www.w3.org/2000/svg" viewBox="0 0 500 500">
  <defs>
    <style>
      .cls-1, .cls-2 {
        fill: #5b5e60;
      }

      .cls-1, .cls-3 {
        opacity: .7;
      }

      .cls-4 {
        fill: #c7bb93;
      }

      .cls-5 {
        fill: #ae9d64;
      }

      .cls-6 {
        fill: #c1b387;
      }

      .cls-7 {
        fill: #fff;
      }

      .cls-8, .cls-9, .cls-3 {
        fill: #a38f4e;
      }

      .cls-10 {
        opacity: .2;
      }

      .cls-10, .cls-11 {
        fill: #363b3d;
      }

      .cls-11 {
        opacity: .6;
      }

      .cls-12 {
        fill: #e2dbc6;
      }

      .cls-13 {
        fill: #ffecb8;
        opacity: .15;
      }

      .cls-9 {
        opacity: .5;
      }
    </style>
  </defs>
  <g id="Smartphone">
    <g>
      <rect class="cls-8" x="315.75" y="128.08" width="1.04" height="6.58"/>
      <path class="cls-8" d="M301.29,107.24v1.04c7.97,0,14.45,6.48,14.45,14.45h1.04c0-8.54-6.95-15.49-15.49-15.49Z"/>
      <path class="cls-8" d="M301.29,110.88h-138.02c-6.52,0-11.86,5.34-11.86,11.86v281.51c0,6.52,5.34,11.86,11.86,11.86h138.02c6.52,0,11.86-5.34,11.86-11.86V122.73c0-6.52-5.34-11.86-11.86-11.86ZM307.78,404.24c0,4.02-3.27,7.29-7.29,7.29h-138.02c-4.02,0-7.29-3.27-7.29-7.29V122.73c0-4.02,3.27-7.29,7.29-7.29h138.02c4.02,0,7.29,3.27,7.29,7.29v281.51Z"/>
      <path class="cls-8" d="M231.48,383.73c-4.55,0-8.25,3.69-8.25,8.25s3.69,8.25,8.25,8.25,8.25-3.69,8.25-8.25-3.69-8.25-8.25-8.25Z"/>
      <path class="cls-8" d="M238.79,114.61h-13.62c0,.28.02.56.06.83h13.51c.03-.27.06-.55.06-.83Z"/>
      <path class="cls-8" d="M231.98,121.42c3.48,0,6.34-2.61,6.75-5.98h-13.51c.41,3.37,3.28,5.98,6.75,5.98Z"/>
      <path class="cls-3" d="M276.51,144.16h-89.05c-7.53,0-13.7,6.16-13.7,13.7v9.13c0,7.54,6.17,13.7,13.7,13.7h89.05l13.7,8.12v-30.95c0-7.53-6.16-13.7-13.7-13.7ZM274.03,167.62h-67.91v-2.28h67.91v2.28ZM274.03,159.53h-84.09v-2.28h84.09v2.28Z"/>
      <g>
        <path class="cls-13" d="M276.51,205h-89.05c-7.54,0-13.7,6.17-13.7,13.7v30.95l13.7-8.12h89.05c7.53,0,13.7-6.17,13.7-13.7v-9.13c0-7.54-6.17-13.7-13.7-13.7Z"/>
        <rect class="cls-9" x="189.94" y="218.08" width="84.09" height="2.28"/>
        <rect class="cls-9" x="189.94" y="226.17" width="39" height="2.28"/>
        <rect class="cls-9" x="235.03" y="226.17" width="15.86" height="2.28"/>
      </g>
      <path class="cls-3" d="M276.51,265.83h-89.05c-7.53,0-13.7,6.17-13.7,13.7v9.13c0,7.53,6.17,13.7,13.7,13.7h89.05l13.7,8.12v-30.95c0-7.53-6.16-13.7-13.7-13.7ZM274.03,289.28h-67.91v-2.28h67.91v2.28ZM274.03,281.19h-84.09v-2.28h84.09v2.28Z"/>
      <g>
        <path class="cls-9" d="M194.4,344.93c0-2.23-1.81-4.05-4.05-4.05s-4.05,1.81-4.05,4.05"/>
        <path class="cls-9" d="M202.49,337.65c-2.23,0-4.05,1.81-4.05,4.05s1.81,4.05,4.05,4.05"/>
        <path class="cls-9" d="M214.63,345.74c-2.23,0-4.05,1.81-4.05,4.05s1.81,4.05,4.05,4.05"/>
      </g>
      <path class="cls-9" d="M186.31,344.93c0,2.23,1.81,4.05,4.05,4.05s4.05-1.81,4.05-4.05"/>
      <path class="cls-9" d="M202.49,345.74c2.23,0,4.05-1.81,4.05-4.05s-1.81-4.05-4.05-4.05"/>
      <path class="cls-9" d="M214.63,353.83c2.23,0,4.05-1.81,4.05-4.05s-1.81-4.05-4.05-4.05"/>
      <path class="cls-13" d="M222.09,326.66h-34.63c-7.54,0-13.7,6.17-13.7,13.7v30.95l13.7-8.12h34.63c7.53,0,13.7-6.17,13.7-13.7v-9.13c0-7.53-6.17-13.7-13.7-13.7Z"/>
    </g>
  </g>
  <g id="Character_2" data-name="Character 2">
    <g>
      <path class="cls-12" d="M344.33,335.2c1.1,2.19,2.08,4.39,3.11,6.6,1.01,2.21,1.98,4.43,2.93,6.67.94,2.24,1.88,4.49,2.76,6.78.89,2.28,1.77,4.58,2.58,6.97l-3.59-3.37c1.74.67,4.04,1.04,6.48,1.12,2.44.08,5.04-.05,7.67-.35,2.63-.28,5.3-.71,7.98-1.22,2.66-.5,5.41-1.12,7.99-1.73l2.37,5.75c-2.67,1.48-5.29,2.67-8.05,3.78-2.74,1.1-5.57,2.04-8.49,2.82-2.93.75-5.95,1.37-9.16,1.6-3.2.25-6.62.17-10.29-.84l-2.34-.65-1.24-2.73c-1.92-4.2-3.99-8.53-6.04-12.84-1.02-2.16-2.05-4.32-3.04-6.5-.99-2.18-2.02-4.35-2.97-6.53l11.37-5.34Z"/>
      <path class="cls-2" d="M326.67,326.21c8.03-3.08,14.2,1.52,24.31,14.29l-11.84,12.17s-28.07-20.47-12.47-26.46Z"/>
      <path class="cls-10" d="M341.69,339.41c-3.78-2.45-7.08-1.76-9.85.52,1.05,3.89,3.74,8.35,6.33,11.99.61.48.98.74.98.74l6.6-6.79c-.5-2.98-1.96-5.12-4.05-6.46Z"/>
      <g>
        <polygon class="cls-12" points="387.6 411.04 397.17 409.93 396.38 390.28 386.81 391.4 387.6 411.04"/>
        <path class="cls-2" d="M397.26,405.8l-10.79.15c-.35,0-.64.28-.69.66l-1.22,8.49c-.13.88.54,1.7,1.35,1.68,3.36-.11,4.89-.37,9.12-.43,2.6-.04,10.47.15,14.06.1,3.52-.05,3.84-4.01,2.35-4.35-6.69-1.51-10.54-3.65-12.77-5.73-.4-.38-.91-.57-1.42-.57Z"/>
        <path class="cls-8" d="M399.55,403.3c.28-.11.59-.07.93.11.28.16.37.39.39.55.12,1.04-2.04,2.8-2.29,2.99-.06.04-.14.05-.2,0-.07-.04-.11-.11-.1-.19.07-1.08.32-2.96,1.18-3.43.03-.02.07-.03.1-.05ZM398.68,406.36c.85-.73,1.88-1.82,1.82-2.37,0-.07-.04-.16-.18-.24-.26-.15-.49-.16-.68-.06-.46.25-.81,1.24-.96,2.67Z"/>
        <path class="cls-8" d="M399.45,406.01c.82-.33,1.82-.52,2.32-.21.15.1.39.33.31.8-.05.3-.21.53-.47.67-.97.55-3.12-.27-3.21-.31-.06-.02-.11-.08-.13-.15-.01-.07,0-.14.05-.18.23-.21.65-.45,1.12-.64ZM401.31,406.99s.07-.03.11-.05c.17-.09.26-.23.3-.42.04-.24-.04-.33-.12-.38-.48-.3-1.95.09-2.74.6.69.22,1.84.5,2.46.25Z"/>
        <polygon class="cls-10" points="386.81 391.4 396.38 390.29 396.79 400.42 387.17 400.46 386.81 391.4"/>
        <g>
          <path class="cls-8" d="M339.84,379.99s24.86-23.12,40.97-23.47c11.78-.25,20.21,38.7,20.21,38.7l-13.97.27s-2.46-13.78-11.61-17.58c-13.21,19.84-67.1,59.05-61.97,16.55,7.96-3.01,26.37-14.47,26.37-14.47Z"/>
          <path class="cls-10" d="M339.84,379.99s24.86-23.12,40.97-23.47c11.78-.25,20.21,38.7,20.21,38.7l-13.97.27s-2.46-13.78-11.61-17.58c-13.21,19.84-67.1,59.05-61.97,16.55,7.96-3.01,26.37-14.47,26.37-14.47Z"/>
        </g>
        <polygon class="cls-2" points="400.98 397.17 384.53 398.75 384.58 392.75 401.99 390.68 400.98 397.17"/>
      </g>
      <path class="cls-2" d="M350.61,388.78c-7.66-22.58-7.91-41.53-9.39-54.01-.67-5.65-5.18-9.55-11.05-9.57-5.85-.02-13.1.07-19.97.43-.82.04-1.63.17-2.42.35v69.87l42.84-7.06Z"/>
      <path class="cls-2" d="M295.22,341.43c1.29,33.63,11.98,54.51,11.98,54.51l.58-.09v-69.87c-7.08,1.6-12.83,8.33-12.56,15.46Z"/>
      <path class="cls-10" d="M309.01,337.87c-.27-.25-.66-.62-1.23-.82v24.83c3.46-8.27,6.43-19.3,1.23-24Z"/>
      <path class="cls-10" d="M300.21,341.6c-.35,1.3-.51,2.63-.47,3.99.38,9.85,1.55,18.6,3.04,26.06.87-1.23,3.01-5.06,4.99-9.79v-24.83c-1.28-.45-3.5-.04-7.56,4.56Z"/>
      <path class="cls-12" d="M318.16,305.63c-.66,6.13-2.28,15.54-6.45,19.91,3.28,3.08,8.62,6.12,16.21,7.39,3.92-1.62,4.44-5.23,2.55-7.74-6.7-1.17-6.63-3.07-4.09-7.34l-8.21-12.22Z"/>
      <path class="cls-10" d="M321.51,310.62l4.86,7.23c-.6,1.01-1.24,2.19-1.49,3.21-2.38-.96-5.02-4.64-4.48-7.32.27-1.33.71-2.57,1.11-3.12Z"/>
      <path class="cls-2" d="M335.72,294.33c3.93,4.17,12.19,4.19,8.64-.75-3.55-4.94-11.7-2.5-8.64.75Z"/>
      <path class="cls-12" d="M319.79,293.88c-2.19,7.95-3.87,12.48-1.38,18.01,3.74,8.31,14.38,8.52,18.85,1.49,4.03-6.32,6.94-18.27.53-24.34-6.31-5.99-15.81-3.11-18,4.84Z"/>
      <g>
        <path class="cls-12" d="M318.02,301.3c.98-.17,5.94-1.68,8.35-3.99,2.72-2.61,2.73-5.13,1.98-6.29s-6.46-3.36-9.12-2.85c-4.22.81-3.18,8.28-3.12,10.3.06,2.02,1.91,2.83,1.91,2.83Z"/>
        <path class="cls-1" d="M318.02,301.3c.98-.17,5.94-1.68,8.35-3.99,2.72-2.61,2.73-5.13,1.98-6.29s-6.46-3.36-9.12-2.85c-4.22.81-3.18,8.28-3.12,10.3.06,2.02,1.91,2.83,1.91,2.83Z"/>
      </g>
      <path class="cls-12" d="M313.81,301.85c.82,1.85,2.39,3.19,3.91,3.81,2.29.94,3.61-1.04,3.11-3.34-.45-2.07-2.19-5.06-4.56-5.02-2.33.04-3.4,2.43-2.46,4.55Z"/>
      <path class="cls-2" d="M321.33,290.55c10.19,2.18,17.44,7.92,22.27,4.47,3.41-2.44,1.17-6.89-2.74-10.11-3.34-2.75-7.96-3.6-9.4-5.85-.69,2.47,1.58,4,1.58,4,0,0-9.21-1.42-11.76-3.82-.61,1.43,1.75,4.19,1.75,4.19,0,0-2.61,2.47-10.06-.32.49,2.39,2.56,6.2,8.36,7.44Z"/>
      <path class="cls-2" d="M341.59,295.83c-.13,0-.27,0-.4-.01l.03-.52c1.97.12,3.57-.79,4.25-2.47.69-1.7.39-4.28-1.84-6.2-.8-.69-1.8-1.19-2.86-1.72-2.37-1.19-5.07-2.54-6.36-6.47l.49-.16c1.23,3.72,3.71,4.96,6.1,6.17,1.09.55,2.12,1.06,2.97,1.79,2.43,2.09,2.75,4.92,1.99,6.79-.72,1.77-2.34,2.8-4.36,2.8Z"/>
      <path class="cls-2" d="M331.35,301.65c-.22.63-.06,1.28.34,1.44.41.16.91-.22,1.13-.85s.06-1.28-.34-1.44c-.41-.16-.91.22-1.13.85Z"/>
      <path class="cls-2" d="M338.89,303.93c-.22.63-.06,1.28.34,1.44.41.16.91-.22,1.13-.85s.06-1.28-.34-1.44c-.41-.16-.91.22-1.13.85Z"/>
      <path class="cls-6" d="M336.12,303.16s.16,4.21,1.11,6.59c-1.46.61-3.16-.62-3.16-.62l2.05-5.98Z"/>
      <path class="cls-2" d="M329.99,310.66c-2.25-1.27-2.78-3.38-2.8-3.48-.03-.11.04-.21.14-.24.1-.02.21.05.23.15,0,.02.62,2.48,3.34,3.56.1.04.15.16.12.26s-.15.15-.25.11c-.28-.11-.55-.24-.79-.38Z"/>
      <path class="cls-2" d="M329.3,297.51c-.06-.03-.11-.08-.15-.14-.12-.19-.07-.43.11-.55,1.78-1.15,3.43-.38,3.49-.35.2.09.29.33.2.53-.08.2-.31.28-.51.19h0c-.05-.03-1.34-.61-2.76.31-.12.08-.27.08-.39,0Z"/>
      <path class="cls-2" d="M341.46,302.06c-.12-.04-.22-.14-.26-.27-.51-1.7-1.84-2.17-1.9-2.19-.2-.07-.32-.29-.26-.5.06-.21.27-.32.47-.26.07.03,1.78.61,2.42,2.74.06.21-.05.43-.25.49-.08.02-.15.02-.22,0Z"/>
      <g>
        <polygon class="cls-12" points="420.83 415.71 426.53 407.42 411.18 394.05 405.48 402.34 420.83 415.71"/>
        <path class="cls-2" d="M422.59,403.5l-6.69,8.33c-.22.28-.22.69.02.98l5.2,6.48c.54.67,1.55.68,2.06.03,2.11-2.72,3.51-4.81,6.23-8.19,1.67-2.08,6.92-8.16,9.23-11.03,2.25-2.81-.33-5.64-1.54-4.68-5.42,4.29-10.26,6.92-13.18,7.33-.53.07-1,.35-1.33.75Z"/>
        <path class="cls-8" d="M422.15,400.08c.08-.29.29-.52.64-.67.3-.13.53-.06.67.02.91.52,1.02,3.31,1.03,3.63,0,.07-.04.14-.11.17-.07.03-.15.02-.21-.03-.82-.7-2.18-2.02-2.04-2.99,0-.04.01-.08.02-.11ZM424.08,402.61c-.08-1.11-.34-2.6-.81-2.88-.06-.03-.15-.07-.3,0-.28.12-.42.29-.46.51-.07.52.51,1.39,1.57,2.36Z"/>
        <path class="cls-8" d="M424.27,401.78c.23-.86.67-1.77,1.22-1.98.17-.06.5-.12.83.23.21.22.3.48.26.78-.14,1.1-2.08,2.34-2.16,2.39-.06.04-.13.04-.19.01-.06-.03-.11-.09-.11-.15-.03-.31.03-.78.16-1.28ZM426.17,400.87s.02-.08.02-.11c.02-.19-.03-.35-.16-.49-.17-.18-.29-.16-.38-.13-.53.2-1.09,1.62-1.16,2.56.59-.42,1.5-1.18,1.67-1.82Z"/>
        <polygon class="cls-10" points="405.48 402.34 411.18 394.05 419.1 400.94 412.56 408.51 405.48 402.34"/>
        <path class="cls-8" d="M386.18,367.49c-19.66-19-63.37,25.41-63.37,25.41,0,0-6.87.78-15.03,2.89v8.45c0,.49-.05.97-.14,1.43,4.48,20.21,33.26,13.82,65.03-21.7,6.88,7.76,33.29,21.81,33.29,21.81l10.47-10.14s-18-16.31-30.26-28.15Z"/>
        <path class="cls-8" d="M307.78,395.79c-.19.05-.38.1-.58.15-.35,3.74-.18,6.98.43,9.74.09-.46.14-.94.14-1.43v-8.45Z"/>
        <polygon class="cls-2" points="419.54 395.73 408.08 410.13 403.22 406.87 414.93 391.58 419.54 395.73"/>
      </g>
      <g>
        <path class="cls-12" d="M308.88,372.89c.1.04.2.1.31.18.22.14.41.37.54.52.06.1.11.14.14.22,0-.06-.02-.11-.04-.17-.05-.2-.11-.47-.17-.78-.31.03-.58.03-.78.02Z"/>
        <path class="cls-12" d="M334.59,361.67c-2.59,1.45-5.27,2.97-7.93,4.34-2.66,1.4-5.33,2.75-7.99,3.92-2.63,1.19-5.35,2.21-7.69,2.73-.46.11-.92.17-1.32.21.06.31.13.58.17.78.02.05.03.11.04.17-.03-.08-.08-.12-.14-.22-.13-.15-.31-.39-.54-.52-.11-.08-.22-.14-.31-.18-.17-.01-.3-.03-.35-.07-.05-.02,0-.04.12-.01.06.01.14.04.23.08.2.01.47,0,.78-.02-.05-.24-.1-.49-.14-.77-.11-.62-.2-1.3-.28-2-.17-1.39-.33-2.84-.44-4.31-.23-2.95-.42-5.96-.58-8.98l-.43-9.09v36.06c1.18.05,2.2-.05,3.12-.21,1.08-.19,2.04-.45,2.94-.75,1.81-.59,3.41-1.3,4.93-2.08,1.52-.77,2.96-1.59,4.36-2.44,5.57-3.45,10.48-7.34,15.21-11.67l-3.74-4.97Z"/>
        <path class="cls-12" d="M307.35,338.61l-12.55.36c.11,6.29.44,12.47,1,18.74.28,3.13.61,6.27,1.07,9.45.23,1.59.47,3.2.8,4.85.16.83.34,1.66.57,2.55.22.88.47,1.8.89,2.91l.38.91c.21.42.4.82.69,1.24.52.82,1.26,1.61,2.06,2.24.82.63,1.71,1.08,2.56,1.38.83.28,1.65.45,2.36.51.22.02.41.02.62.03v-36.06l-.43-9.12Z"/>
        <path class="cls-2" d="M307.78,326.89v24.55l4.7-.37s8.11-22.43-4.7-24.18Z"/>
        <path class="cls-2" d="M304.28,326.88c-4.71.54-11.76,4.97-12.01,25.79l15.51-1.22v-24.55c-1.03-.14-2.18-.16-3.5-.01Z"/>
        <path class="cls-8" d="M351.55,351.15l-7.5.49c-.84.06-1.68.81-1.86,1.68l-3.51,16.48c-.19.87.35,1.53,1.19,1.48l7.5-.49c.84-.05,1.68-.81,1.86-1.68l3.51-16.48c.19-.87-.35-1.53-1.19-1.48Z"/>
        <path class="cls-12" d="M335.17,361.29l6.21-2.16-1.53,9.73s-6.92,1.52-7.49-2.2l1-3.32c.29-.97,1-1.78,1.81-2.06Z"/>
        <polygon class="cls-12" points="348.48 359.95 345.79 368.61 339.85 368.86 341.38 359.13 348.48 359.95"/>
      </g>
    </g>
  </g>
  <g id="Character_1" data-name="Character 1">
    <g>
      <path class="cls-2" d="M133.38,155.95c6.41,14.9-4.2,21.38-4.12,39.65.05,10.78,15.05,12.17,25.92,9.02v-62.01c-10.5-4.51-25.57,4.57-21.8,13.33Z"/>
      <path class="cls-2" d="M169.24,182.7s-2.77,4.85-6.47.85c-3.7-4,12.63-27.6-.14-33.15-1.7-3.99-4.38-6.46-7.45-7.78v62.01c3.34-.96,6.29-2.35,8.29-4.03,9.5-7.97,5.77-17.9,5.77-17.9Z"/>
      <polygon class="cls-4" points="142.42 370.33 133.5 378.37 150.69 398.03 155.18 395.42 155.18 389.79 142.42 370.33"/>
      <polygon class="cls-4" points="155.18 389.79 155.18 395.42 157.85 393.86 155.18 389.79"/>
      <path class="cls-2" d="M149.87,396.23c-.39.3-.69.73-.81,1.22-.71,2.7-1.66,5.68-6.03,10.67-.97,1.11,1.15,3.51,3.85,1.44,2.58-1.98,6.21-5.03,8.3-6.67v-10.72l-5.3,4.07Z"/>
      <path class="cls-2" d="M162.81,397.3c.63-.47.75-1.4.23-1.9l-4.95-4.82c-.22-.22-.57-.22-.84-.02l-2.08,1.6v10.72c.15-.12.31-.24.44-.34,3.25-2.49,4.59-3.3,7.2-5.24Z"/>
      <path class="cls-8" d="M148.21,399.19c-.65.5-1.33.87-1.88.84-.35-.02-.62-.18-.81-.49-.11-.19-.12-.39-.03-.59.49-1.03,4.06-1.79,4.46-1.87.08-.02.16.02.19.09.04.07.02.16-.03.22-.48.53-1.18,1.25-1.9,1.81ZM146.09,398.82c-.12.09-.21.18-.25.28-.04.08-.03.16.02.24.13.21.3.32.53.33.65.03,1.78-.74,3.06-2.09-1.21.29-2.73.77-3.36,1.24Z"/>
      <path class="cls-8" d="M150.09,397.41s-.05.03-.07.04c-1.03.27-3.58.13-3.98-.66-.09-.19-.12-.49.28-.86.3-.27.65-.41,1.05-.41,1.31.01,2.7,1.55,2.76,1.61.04.05.06.12.03.18-.01.04-.04.07-.07.1ZM146.65,396.12s-.06.05-.09.08c-.26.25-.2.37-.18.41.24.47,2.08.71,3.21.55-.44-.42-1.4-1.25-2.26-1.25-.26,0-.48.07-.68.22Z"/>
      <path class="cls-4" d="M131.82,197.08c-.47,2.15-1.01,4.09-1.61,6.1-.59,1.99-1.22,3.97-1.93,5.92-1.41,3.91-2.97,7.78-4.86,11.54l-1.47,2.8c-.53.92-1.05,1.84-1.6,2.75l-.86,1.35c-.3.46-.53.87-.94,1.41-.2.26-.4.52-.67.83-.28.31-.54.61-1.14,1.08-.39.25-.67.53-1.71.81-.19.05-.57.1-.88.1-.3,0-.69-.04-1.07-.15-.72-.19-1.38-.67-1.71-1.04-.71-.78-.85-1.35-.97-1.7-.12-.39-.15-.66-.19-.92-.09-.95-.03-1.55.03-2.17.07-.6.16-1.16.27-1.7.2-1.08.47-2.11.74-3.12.56-2.03,1.22-3.97,2.01-5.92l3.95.88-.26,5.95c-.05.97-.07,1.94-.08,2.86,0,.46.01.91.04,1.31.03.39.08.8.13.85,0,0,.02-.03-.02-.18-.05-.1-.08-.44-.62-1.04-.25-.28-.8-.68-1.4-.84-.31-.09-.64-.12-.88-.13-.25,0-.57.05-.7.08-.79.22-.86.35-1.05.46-.21.15-.13.07-.09,0l.23-.39,1.34-2.4c.45-.84.86-1.7,1.3-2.55l1.23-2.61c1.56-3.53,2.97-7.15,4.2-10.86.62-1.85,1.19-3.72,1.76-5.59.55-1.85,1.08-3.8,1.53-5.57l7.96,1.8Z"/>
      <path class="cls-4" d="M128.4,186.67c-2.91.47-7.5,18.9-7.5,18.9l6.69,5.15s6.72-13.32,7-19.31c.2-4.34-4-5.09-6.18-4.74Z"/>
      <path class="cls-4" d="M117.91,216.86l-1.13-9.17-5.25,7.7s.67,3.17,3.91,3.69l2.47-2.23Z"/>
      <polygon class="cls-4" points="145.07 381.76 146.6 409.68 154.6 409.41 155.18 399.38 155.18 381.9 145.07 381.76"/>
      <polygon class="cls-4" points="155.18 381.9 155.18 399.38 156.17 381.91 155.18 381.9"/>
      <path class="cls-2" d="M155.03,407.07l-8.97.06c-.48,0-.97.18-1.37.5-2.23,1.78-3.34,3.65-9.69,5.04-1.42.31-1.39,3.62,1.89,3.6,3.35-.02,6.92-.3,9.34-.32,3.95-.03,5.44.15,8.56.18.75,0,1.43-.69,1.38-1.43l-.54-7.09c-.02-.32-.27-.54-.6-.54Z"/>
      <path class="cls-8" d="M141.6,185.76c-6.35.02-13.68.86-13.68.86,0,0-3.98,1-4.04,48.32,12.23,1.08,24.84,2.2,31.3,2.77v-50.8c-4.91-.67-9.07-1.17-13.58-1.15Z"/>
      <path class="cls-8" d="M169.49,190.06s-6.48-2.07-13.33-3.01c-.34-.05-.66-.09-.99-.13v50.8c.26.02.54.05.78.07,1.6-13.19,2.91-21.3,13.54-47.72Z"/>
      <path class="cls-10" d="M161.5,211.6c.93-2.87,2.04-6.06,3.38-9.67l-1.71-5.83c-1.29,3.08-2.65,10.11-1.68,15.5Z"/>
      <polygon class="cls-4" points="116.78 207.7 111.53 215.4 117.91 215.03 121.31 207.99 116.78 207.7"/>
      <path class="cls-2" d="M120.11,225.41l6.05-.09c.84-.01,1.48-.76,1.36-1.58l-1.87-13.45c-.1-.7-.7-1.21-1.4-1.2l-6.05.09c-.84.01-1.48.76-1.36,1.58l1.87,13.45c.1.7.7,1.21,1.4,1.2Z"/>
      <path class="cls-4" d="M155.18,178.81v-6.89l-7.96,5.38c.31,3.75-.19,7.66-5.62,8.46,0,0-4.68,3.12-1.34,10.94,7.58-3.24,12.84-7.15,14.92-8.82v-2.99c-.42-1.72-.34-3.87,0-6.08Z"/>
      <path class="cls-4" d="M157.41,170.41l-2.23,1.51v6.89c.47-3.04,1.42-6.17,2.23-8.4Z"/>
      <path class="cls-4" d="M155.18,184.89v2.99c.64-.52.99-.83.99-.83-.47-.58-.78-1.33-.99-2.16Z"/>
      <path class="cls-2" d="M135.43,165.09c-.84,13.89-9.19,17.87-7.23,24.97,2.77,10.01,14.07,2.17,14.07,2.17,0,0-6.15,1.99-6.54-2.86-.32-3.97,13.87-3.38,9.93-12.79-2.52-6.03-10.23-11.49-10.23-11.49Z"/>
      <path class="cls-10" d="M154.5,173.92l-7.28,3.38c.08.89.1,1.78.03,2.64,1.52.13,5.45-1.02,6.94-3.46.57-.93.4-2.05.31-2.56Z"/>
      <path class="cls-4" d="M142.3,148.98c-7.17,4.3-6.43,16.06-3.67,22.82,2.81,6.87,11.29,8.13,16.54,2.96v-24.5c-3.31-3.05-8.4-3.97-12.88-1.29Z"/>
      <path class="cls-4" d="M156.55,173.18c3.32-4.62,2.85-7.95,2.11-15.83-.27-2.88-1.59-5.33-3.49-7.08v24.5c.49-.48.95-.99,1.38-1.58Z"/>
      <path class="cls-2" d="M155.18,160.25v-11.7c-5.04-1.71-8.23,4.86,0,11.7Z"/>
      <path class="cls-2" d="M156.93,149.44c-.6-.41-1.19-.7-1.75-.9v11.7c.44.36.9.73,1.41,1.1,11.04,7.98,7.41-7.05.35-11.9Z"/>
      <path class="cls-2" d="M153.62,147.15c2.57,2.31-12.73,10.83-21.05,8.01-8.31-2.81-1.65-9.18,1.39-9.96-2.6,2.51,1.95,6.32,4.16,3.94,2.21-2.38,10.35-6.63,15.5-1.99Z"/>
      <g>
        <path class="cls-8" d="M123.87,234.94s-16.93,71.69-15.45,89.79c1.73,21.16,24.87,55.27,24.87,55.27l10.63-9.64s-10.56-27.95-18.36-46.14c2.5-18.2,24.6-69.62,24.6-86.94l-26.3-2.33Z"/>
        <path class="cls-11" d="M123.87,234.94s-16.93,71.69-15.45,89.79c1.73,21.16,24.87,55.27,24.87,55.27l10.63-9.64s-10.56-27.95-18.36-46.14c2.5-18.2,24.6-69.62,24.6-86.94l-26.3-2.33Z"/>
      </g>
      <polygon class="cls-8" points="145.89 371.79 133.33 381.15 130.11 378.7 143.89 367.83 145.89 371.79"/>
      <path class="cls-10" d="M136.4,266.47c-9.32,12.92-9.78,36.68-9.2,50.02,3.2-12.26,9.91-30.58,15.26-47.07-.12-6.34-1.69-9-6.06-2.95Z"/>
      <g>
        <path class="cls-8" d="M129.89,235s6.19,61.91,8.27,82.81c2.46,24.81,6.07,64.6,6.07,64.6l10.95-.45v-144.26l-25.28-2.7Z"/>
        <path class="cls-8" d="M156.85,325.95c.36-29.51,4.71-69.61-.89-88.17l-.78-.08v144.26l1-.04s2.62-33.73.67-55.96Z"/>
      </g>
      <path class="cls-11" d="M129.89,235s6.19,61.91,8.27,82.81c2.46,24.81,6.07,64.6,6.07,64.6l10.95-.45v-144.26l-25.28-2.7Z"/>
      <path class="cls-11" d="M156.85,325.95c.36-29.51,4.71-69.61-.89-88.17l-.78-.08v144.26l1-.04s2.62-33.73.67-55.96Z"/>
      <polygon class="cls-8" points="142.42 379.4 143.38 383.71 155.18 384.04 155.18 379.05 142.42 379.4"/>
      <polygon class="cls-8" points="157.92 378.97 155.18 379.05 155.18 384.04 157.08 384.1 157.92 378.97"/>
      <path class="cls-2" d="M146.41,161.7c.1.64-.16,1.2-.57,1.27-.42.06-.83-.4-.93-1.04-.1-.64.16-1.2.57-1.27.42-.06.83.4.93,1.04Z"/>
      <path class="cls-2" d="M139.22,162.81c.1.64-.16,1.2-.57,1.27-.42.06-.83-.4-.93-1.04-.1-.64.16-1.2.57-1.27.42-.06.83.4.93,1.04Z"/>
      <path class="cls-2" d="M138.47,161.78l-1.6-.2s.97,1.07,1.6.2Z"/>
      <path class="cls-5" d="M141.58,163.44s-.65,2.91-1.64,4.41c.96.65,2.33.07,2.33.07l-.7-4.49Z"/>
      <path class="cls-2" d="M146.41,169.67c-.32.11-.67.2-1.05.26-.1.02-.2-.05-.22-.16-.02-.1.05-.2.16-.22,2.79-.43,3.79-2.59,3.8-2.61.04-.1.16-.14.25-.09.1.04.14.16.1.25-.04.08-.84,1.82-3.04,2.57Z"/>
      <path class="cls-4" d="M157.55,159.9c-1.89.59-2.37,3.35-2.11,5.06.29,1.9,1.92,3.07,3.46,1.74,1.02-.88,1.86-2.32,1.96-3.96.11-1.87-1.45-3.42-3.31-2.83Z"/>
      <path class="cls-2" d="M149.68,157.76c-.1.02-.2,0-.29-.06-1.39-.96-2.68-.45-2.69-.45-.19.08-.41-.01-.49-.21-.08-.19.01-.41.21-.49.07-.03,1.69-.67,3.41.53.17.12.21.35.09.53-.06.08-.14.14-.23.15Z"/>
      <path class="cls-2" d="M136.1,160.05c-.09.03-.19.03-.28-.01-.19-.09-.27-.31-.18-.5.88-1.9,2.6-2.17,2.68-2.18.21-.03.4.11.43.32.03.21-.11.4-.32.43-.07,0-1.4.24-2.1,1.75-.05.1-.13.17-.22.2Z"/>
      <path class="cls-4" d="M148.71,225.67c-2.45-.38-4.9-.85-7.36-1.36-2.46-.47-4.93-1.03-7.36-1.56l-1.25,3.85c2.41,1.01,4.81,1.86,7.25,2.72,2.45.81,4.92,1.57,7.44,2.26,2.51.68,5.06,1.25,7.73,1.67v-6.75c-2.12-.17-4.28-.48-6.46-.81Z"/>
      <path class="cls-4" d="M159.43,233.62c.74.01,1.51,0,2.35-.1.84-.1,1.75-.26,2.84-.72.55-.25,1.15-.58,1.75-1.1.31-.29.6-.58.86-.96.13-.18.26-.37.36-.58.1-.19.24-.48.25-.5.29-.65.58-1.31.83-1.97.5-1.32.94-2.65,1.29-3.98.71-2.67,1.2-5.34,1.5-8.01.31-2.67.47-5.33.52-7.98,0-1.33-.01-2.65-.06-3.98-.04-1.35-.12-2.61-.28-4.06l-8.12.82c.08,1.08.14,2.35.18,3.54.04,1.21.06,2.42.05,3.63,0,2.42-.07,4.84-.28,7.22-.22,2.38-.52,4.73-1.01,7-.25,1.13-.53,2.24-.86,3.32-.12.39-.26.77-.4,1.15.12-.03.22-.07.29-.1.08-.06.13-.07.11-.05-.02.01-.06.03-.11.05-.02.01-.02.01-.05.03-.09.06-.15.13-.24.25l-.12.18s-.09.2-.04.07c.05-.14.1-.29.15-.43-.13.04-.27.07-.43.1-.42.08-.92.14-1.44.17-1.05.06-2.21.02-3.39-.06-.26-.02-.52-.04-.78-.06v6.75s.03,0,.04,0c1.35.19,2.73.34,4.21.37Z"/>
      <path class="cls-4" d="M161.1,226.7l.12-.18c.09-.11.15-.19.24-.25.02-.02.03-.02.05-.03-.07.03-.18.06-.29.1-.05.14-.1.29-.15.43-.05.13.01-.03.04-.07Z"/>
      <path class="cls-4" d="M169.46,190.06c-2.46-1.61-7.37,2.6-6.78,7.01.87,6.53.94,16.48.94,16.48l8.12-1.63s1.17-19.61-2.28-21.87Z"/>
      <path class="cls-8" d="M141.66,408.06c-.19-.23-.25-.54-.17-.92.07-.32.26-.47.41-.53.96-.43,3.28,1.12,3.54,1.3.06.04.09.12.07.19-.02.07-.08.13-.15.15-1.05.25-2.92.57-3.62-.1-.03-.03-.05-.06-.08-.08ZM144.84,407.98c-.95-.59-2.3-1.26-2.8-1.03-.06.03-.14.08-.17.24-.06.3-.01.52.15.67.38.37,1.42.41,2.83.12Z"/>
      <path class="cls-8" d="M144.28,407.35c-.56-.69-1.04-1.59-.89-2.16.05-.17.19-.47.67-.53.3-.04.57.04.78.25.81.76.67,3.06.66,3.16,0,.07-.04.13-.1.16-.06.03-.13.03-.19,0-.27-.16-.62-.48-.94-.88ZM144.66,405.27s-.05-.06-.08-.09c-.14-.13-.3-.18-.49-.16-.24.03-.3.14-.33.23-.15.55.67,1.84,1.39,2.44,0-.72-.07-1.91-.49-2.42Z"/>
      <g>
        <path class="cls-7" d="M123.77,232.76c-.32-.03-.59.12-.61.32l-.18,2.92c-.01.18.2.35.49.37l31.7,2.8v-3.64l-31.4-2.78Z"/>
        <path class="cls-7" d="M157.09,238.89l-.35-2.96c-.05-.15-.24-.27-.48-.29l-1.08-.1v3.64l1.32.12c.37.03.67-.17.6-.41Z"/>
      </g>
      <g>
        <path class="cls-8" d="M151.78,239.2l.87.08c.17.02.32-.06.33-.17l.2-3.79c0-.11-.13-.21-.3-.23l-.87-.08c-.17-.02-.32.06-.33.17l-.2,3.79c0,.11.13.21.3.23Z"/>
        <path class="cls-11" d="M151.78,239.2l.87.08c.17.02.32-.06.33-.17l.2-3.79c0-.11-.13-.21-.3-.23l-.87-.08c-.17-.02-.32.06-.33.17l-.2,3.79c0,.11.13.21.3.23Z"/>
      </g>
      <g>
        <path class="cls-8" d="M125.87,236.9l.87.08c.17.02.32-.06.33-.17l.2-3.79c0-.11-.13-.21-.3-.23l-.87-.08c-.17-.02-.32.06-.33.17l-.2,3.79c0,.11.13.21.3.23Z"/>
        <path class="cls-11" d="M125.87,236.9l.87.08c.17.02.32-.06.33-.17l.2-3.79c0-.11-.13-.21-.3-.23l-.87-.08c-.17-.02-.32.06-.33.17l-.2,3.79c0,.11.13.21.3.23Z"/>
      </g>
      <g>
        <path class="cls-8" d="M138.83,238.05l.87.08c.17.02.32-.06.33-.17l.2-3.79c0-.11-.13-.21-.3-.23l-.87-.08c-.17-.02-.32.06-.33.17l-.2,3.79c0,.11.13.21.3.23Z"/>
        <path class="cls-11" d="M138.83,238.05l.87.08c.17.02.32-.06.33-.17l.2-3.79c0-.11-.13-.21-.3-.23l-.87-.08c-.17-.02-.32.06-.33.17l-.2,3.79c0,.11.13.21.3.23Z"/>
      </g>
      <path class="cls-4" d="M135.25,223.11l-4.97-6.67-2.08,7.98s3.72,3.25,6.88,1.98l.17-3.29Z"/>
      <polygon class="cls-4" points="123.85 214.97 122.46 221.72 129.21 225.17 130.28 216.44 123.85 214.97"/>
      <path class="cls-2" d="M145.67,160.67l-1.6-.2s.97,1.07,1.6.2Z"/>
    </g>
  </g>
</svg>