<?xml version="1.0" encoding="UTF-8"?>
<svg id="Layer_1" xmlns="http://www.w3.org/2000/svg" version="1.1" viewBox="0 0 500 500">
  <!-- Generator: Adobe Illustrator 29.2.0, SVG Export Plug-In . SVG Version: 2.1.0 Build 108)  -->
  <defs>
    <style>
      .st0 {
        fill: #939393;
      }

      .st1, .st2, .st3, .st4, .st5, .st6 {
        isolation: isolate;
      }

      .st1, .st2, .st7 {
        fill: #838383;
      }

      .st1, .st3 {
        opacity: .7;
      }

      .st2 {
        opacity: .5;
      }

      .st3, .st8 {
        fill: #4d4d4d;
      }

      .st4 {
        opacity: .2;
      }

      .st4, .st5 {
        fill: #262626;
      }

      .st5 {
        opacity: .6;
      }

      .st9 {
        fill: #d8d8d8;
      }

      .st10 {
        fill: #fff;
      }

      .st11 {
        fill: #747474;
      }

      .st12 {
        fill: #b3b3b3;
      }

      .st6 {
        fill: #e9e9e9;
        opacity: .2;
      }
    </style>
  </defs>
  <g id="Smartphone">
    <g>
      <rect class="st7" x="315.8" y="128.1" width="1" height="6.6"/>
      <path class="st7" d="M301.3,107.2v1c8,0,14.5,6.5,14.5,14.4h1c0-8.5-7-15.5-15.5-15.5h0Z"/>
      <path class="st7" d="M301.3,110.9h-138c-6.5,0-11.9,5.3-11.9,11.9v281.5c0,6.5,5.3,11.9,11.9,11.9h138c6.5,0,11.9-5.3,11.9-11.9V122.7c0-6.5-5.3-11.9-11.9-11.9h0ZM307.8,404.2c0,4-3.3,7.3-7.3,7.3h-138c-4,0-7.3-3.3-7.3-7.3V122.7c0-4,3.3-7.3,7.3-7.3h138c4,0,7.3,3.3,7.3,7.3v281.5h0Z"/>
      <path class="st7" d="M231.5,383.7c-4.6,0-8.2,3.7-8.2,8.2s3.7,8.2,8.2,8.2,8.2-3.7,8.2-8.2-3.7-8.2-8.2-8.2Z"/>
      <path class="st7" d="M238.8,114.6h-13.6c0,.3,0,.6,0,.8h13.5c0-.3,0-.6,0-.8h0Z"/>
      <path class="st7" d="M232,121.4c3.5,0,6.3-2.6,6.8-6h-13.5c.4,3.4,3.3,6,6.8,6h0Z"/>
      <path class="st1" d="M276.5,144.2h-89.1c-7.5,0-13.7,6.2-13.7,13.7v9.1c0,7.5,6.2,13.7,13.7,13.7h89.1l13.7,8.1v-30.9c0-7.5-6.2-13.7-13.7-13.7ZM274,167.6h-67.9v-2.3h67.9v2.3ZM274,159.5h-84.1v-2.3h84.1v2.3Z"/>
      <g>
        <path class="st6" d="M276.5,205h-89.1c-7.5,0-13.7,6.2-13.7,13.7v30.9l13.7-8.1h89.1c7.5,0,13.7-6.2,13.7-13.7v-9.1c0-7.5-6.2-13.7-13.7-13.7Z"/>
        <rect class="st2" x="189.9" y="218.1" width="84.1" height="2.3"/>
        <rect class="st2" x="189.9" y="226.2" width="39" height="2.3"/>
        <rect class="st2" x="235" y="226.2" width="15.9" height="2.3"/>
      </g>
      <path class="st1" d="M276.5,265.8h-89.1c-7.5,0-13.7,6.2-13.7,13.7v9.1c0,7.5,6.2,13.7,13.7,13.7h89.1l13.7,8.1v-31c0-7.5-6.2-13.7-13.7-13.7ZM274,289.3h-67.9v-2.3h67.9v2.3ZM274,281.2h-84.1v-2.3h84.1v2.3Z"/>
      <g>
        <path class="st2" d="M194.4,344.9c0-2.2-1.8-4-4.1-4s-4.1,1.8-4.1,4"/>
        <path class="st2" d="M202.5,337.6c-2.2,0-4.1,1.8-4.1,4s1.8,4,4.1,4"/>
        <path class="st2" d="M214.6,345.7c-2.2,0-4.1,1.8-4.1,4s1.8,4,4.1,4"/>
      </g>
      <path class="st2" d="M186.3,344.9c0,2.2,1.8,4,4.1,4s4.1-1.8,4.1-4"/>
      <path class="st2" d="M202.5,345.7c2.2,0,4.1-1.8,4.1-4s-1.8-4-4.1-4"/>
      <path class="st2" d="M214.6,353.8c2.2,0,4.1-1.8,4.1-4s-1.8-4-4.1-4"/>
      <path class="st6" d="M222.1,326.7h-34.6c-7.5,0-13.7,6.2-13.7,13.7v31l13.7-8.1h34.6c7.5,0,13.7-6.2,13.7-13.7v-9.1c0-7.5-6.2-13.7-13.7-13.7Z"/>
    </g>
  </g>
  <g id="Character_2">
    <g>
      <path class="st0" d="M344.3,335.2c1.1,2.2,2.1,4.4,3.1,6.6,1,2.2,2,4.4,2.9,6.7.9,2.2,1.9,4.5,2.8,6.8.9,2.3,1.8,4.6,2.6,7l-3.6-3.4c1.7.7,4,1,6.5,1.1s5,0,7.7-.4c2.6-.3,5.3-.7,8-1.2,2.7-.5,5.4-1.1,8-1.7l2.4,5.8c-2.7,1.5-5.3,2.7-8,3.8-2.7,1.1-5.6,2-8.5,2.8-2.9.8-6,1.4-9.2,1.6-3.2.2-6.6.2-10.3-.8l-2.3-.6-1.2-2.7c-1.9-4.2-4-8.5-6-12.8-1-2.2-2-4.3-3-6.5-1-2.2-2-4.4-3-6.5l11.4-5.3h0Z"/>
      <path class="st8" d="M326.7,326.2c8-3.1,14.2,1.5,24.3,14.3l-11.8,12.2s-28.1-20.5-12.5-26.5h0Z"/>
      <path class="st4" d="M341.7,339.4c-3.8-2.5-7.1-1.8-9.9.5,1,3.9,3.7,8.4,6.3,12,.6.5,1,.7,1,.7l6.6-6.8c-.5-3-2-5.1-4-6.5h0Z"/>
      <g>
        <polygon class="st0" points="387.6 411 397.2 409.9 396.4 390.3 386.8 391.4 387.6 411"/>
        <path class="st8" d="M397.3,405.8h-10.8c-.4.1-.6.4-.7.8l-1.2,8.5c-.1.9.5,1.7,1.4,1.7,3.4-.1,4.9-.4,9.1-.4,2.6,0,10.5.1,14.1.1,3.5,0,3.8-4,2.4-4.4-6.7-1.5-10.5-3.6-12.8-5.7-.4-.4-.9-.6-1.4-.6h0Z"/>
        <path class="st7" d="M399.5,403.3c.3-.1.6,0,.9.1.3.2.4.4.4.5.1,1-2,2.8-2.3,3,0,0-.1,0-.2,0,0,0-.1-.1-.1-.2,0-1.1.3-3,1.2-3.4,0,0,0,0,.1,0h0ZM398.7,406.4c.9-.7,1.9-1.8,1.8-2.4,0,0,0-.2-.2-.2-.3-.1-.5-.2-.7,0-.5.2-.8,1.2-1,2.7h0Z"/>
        <path class="st7" d="M399.5,406c.8-.3,1.8-.5,2.3-.2.1.1.4.3.3.8,0,.3-.2.5-.5.7-1,.5-3.1-.3-3.2-.3,0,0-.1,0-.1-.1,0,0,0-.1,0-.2.2-.2.6-.5,1.1-.6h0ZM401.3,407s0,0,.1,0c.2,0,.3-.2.3-.4,0-.2,0-.3-.1-.4-.5-.3-2,0-2.7.6.7.2,1.8.5,2.5.2h0Z"/>
        <polygon class="st4" points="386.8 391.4 396.4 390.3 396.8 400.4 387.2 400.5 386.8 391.4"/>
        <g>
          <path class="st7" d="M339.8,380s24.9-23.1,41-23.5c11.8-.2,20.2,38.7,20.2,38.7l-14,.3s-2.5-13.8-11.6-17.6c-13.2,19.8-67.1,59-62,16.5,8-3,26.4-14.5,26.4-14.5Z"/>
          <path class="st4" d="M339.8,380s24.9-23.1,41-23.5c11.8-.2,20.2,38.7,20.2,38.7l-14,.3s-2.5-13.8-11.6-17.6c-13.2,19.8-67.1,59-62,16.5,8-3,26.4-14.5,26.4-14.5Z"/>
        </g>
        <polygon class="st8" points="401 397.2 384.5 398.8 384.6 392.8 402 390.7 401 397.2"/>
      </g>
      <path class="st8" d="M350.6,388.8c-7.7-22.6-7.9-41.5-9.4-54-.7-5.6-5.2-9.5-11-9.6-5.9,0-13.1,0-20,.4-.8,0-1.6.2-2.4.4v69.9l42.8-7.1h0Z"/>
      <path class="st8" d="M295.2,341.4c1.3,33.6,12,54.5,12,54.5h.6v-70c-7.1,1.6-12.8,8.3-12.6,15.5h0Z"/>
      <path class="st4" d="M309,337.9c-.3-.2-.7-.6-1.2-.8v24.8c3.5-8.3,6.4-19.3,1.2-24h0Z"/>
      <path class="st4" d="M300.2,341.6c-.4,1.3-.5,2.6-.5,4,.4,9.9,1.5,18.6,3,26.1.9-1.2,3-5.1,5-9.8v-24.8c-1.3-.5-3.5,0-7.6,4.6h0Z"/>
      <path class="st0" d="M318.2,305.6c-.7,6.1-2.3,15.5-6.5,19.9,3.3,3.1,8.6,6.1,16.2,7.4,3.9-1.6,4.4-5.2,2.5-7.7-6.7-1.2-6.6-3.1-4.1-7.3l-8.2-12.2h0Z"/>
      <path class="st4" d="M321.5,310.6l4.9,7.2c-.6,1-1.2,2.2-1.5,3.2-2.4-1-5-4.6-4.5-7.3.3-1.3.7-2.6,1.1-3.1h0Z"/>
      <path class="st8" d="M335.7,294.3c3.9,4.2,12.2,4.2,8.6-.8s-11.7-2.5-8.6.8Z"/>
      <path class="st0" d="M319.8,293.9c-2.2,8-3.9,12.5-1.4,18,3.7,8.3,14.4,8.5,18.9,1.5,4-6.3,6.9-18.3.5-24.3-6.3-6-15.8-3.1-18,4.8Z"/>
      <g>
        <path class="st9" d="M318,301.3c1-.2,5.9-1.7,8.4-4,2.7-2.6,2.7-5.1,2-6.3s-6.5-3.4-9.1-2.9c-4.2.8-3.2,8.3-3.1,10.3s1.9,2.8,1.9,2.8h0Z"/>
        <path class="st3" d="M318,301.3c1-.2,5.9-1.7,8.4-4,2.7-2.6,2.7-5.1,2-6.3s-6.5-3.4-9.1-2.9c-4.2.8-3.2,8.3-3.1,10.3s1.9,2.8,1.9,2.8h0Z"/>
      </g>
      <path class="st0" d="M313.8,301.9c.8,1.9,2.4,3.2,3.9,3.8,2.3.9,3.6-1,3.1-3.3-.5-2.1-2.2-5.1-4.6-5-2.3,0-3.4,2.4-2.5,4.5Z"/>
      <path class="st8" d="M321.3,290.5c10.2,2.2,17.4,7.9,22.3,4.5,3.4-2.4,1.2-6.9-2.7-10.1-3.3-2.8-8-3.6-9.4-5.9-.7,2.5,1.6,4,1.6,4,0,0-9.2-1.4-11.8-3.8-.6,1.4,1.8,4.2,1.8,4.2,0,0-2.6,2.5-10.1-.3.5,2.4,2.6,6.2,8.4,7.4h0Z"/>
      <path class="st8" d="M341.6,295.8c-.1,0-.3,0-.4,0v-.5c2,.1,3.6-.8,4.3-2.5.7-1.7.4-4.3-1.8-6.2-.8-.7-1.8-1.2-2.9-1.7-2.4-1.2-5.1-2.5-6.4-6.5l.5-.2c1.2,3.7,3.7,5,6.1,6.2,1.1.5,2.1,1.1,3,1.8,2.4,2.1,2.8,4.9,2,6.8-.7,1.8-2.3,2.8-4.4,2.8h0Z"/>
      <path class="st8" d="M331.4,301.6c-.2.6,0,1.3.3,1.4.4.2.9-.2,1.1-.9s0-1.3-.3-1.4c-.4-.2-.9.2-1.1.9Z"/>
      <path class="st8" d="M338.9,303.9c-.2.6,0,1.3.3,1.4.4.2.9-.2,1.1-.9s0-1.3-.3-1.4c-.4-.2-.9.2-1.1.9Z"/>
      <path class="st11" d="M336.1,303.2s.2,4.2,1.1,6.6c-1.5.6-3.2-.6-3.2-.6l2-6h0Z"/>
      <path class="st8" d="M330,310.7c-2.2-1.3-2.8-3.4-2.8-3.5,0-.1,0-.2.1-.2.1,0,.2,0,.2.1,0,0,.6,2.5,3.3,3.6.1,0,.1.2.1.3s-.1.1-.2.1c-.3-.1-.5-.2-.8-.4h0Z"/>
      <path class="st8" d="M329.3,297.5c0,0-.1,0-.1-.1-.1-.2,0-.4.1-.5,1.8-1.1,3.4-.4,3.5-.4.2,0,.3.3.2.5,0,.2-.3.3-.5.2h0s-1.3-.6-2.8.3c-.1,0-.3,0-.4,0h0Z"/>
      <path class="st8" d="M341.5,302.1c-.1,0-.2-.1-.3-.3-.5-1.7-1.8-2.2-1.9-2.2-.2,0-.3-.3-.3-.5s.3-.3.5-.3c0,0,1.8.6,2.4,2.7,0,.2,0,.4-.2.5,0,0-.1,0-.2,0h0Z"/>
      <g>
        <polygon class="st0" points="420.8 415.7 426.5 407.4 411.2 394 405.5 402.3 420.8 415.7"/>
        <path class="st8" d="M422.6,403.5l-6.7,8.3c-.2.3-.2.7,0,1l5.2,6.5c.5.7,1.5.7,2.1,0,2.1-2.7,3.5-4.8,6.2-8.2,1.7-2.1,6.9-8.2,9.2-11,2.2-2.8-.3-5.6-1.5-4.7-5.4,4.3-10.3,6.9-13.2,7.3-.5,0-1,.4-1.3.8h0Z"/>
        <path class="st7" d="M422.1,400.1c0-.3.3-.5.6-.7.3-.1.5,0,.7,0,.9.5,1,3.3,1,3.6,0,0,0,.1-.1.2,0,0-.1,0-.2,0-.8-.7-2.2-2-2-3,0,0,0,0,0-.1h0ZM424.1,402.6c0-1.1-.3-2.6-.8-2.9,0,0-.1,0-.3,0-.3.1-.4.3-.5.5,0,.5.5,1.4,1.6,2.4h0Z"/>
        <path class="st7" d="M424.3,401.8c.2-.9.7-1.8,1.2-2,.2,0,.5-.1.8.2.2.2.3.5.3.8-.1,1.1-2.1,2.3-2.2,2.4,0,0-.1,0-.2,0s-.1,0-.1-.1c0-.3,0-.8.2-1.3h0ZM426.2,400.9s0,0,0-.1c0-.2,0-.4-.2-.5-.2-.2-.3-.2-.4-.1-.5.2-1.1,1.6-1.2,2.6.6-.4,1.5-1.2,1.7-1.8h0Z"/>
        <polygon class="st4" points="405.5 402.3 411.2 394 419.1 400.9 412.6 408.5 405.5 402.3"/>
        <path class="st7" d="M386.2,367.5c-19.7-19-63.4,25.4-63.4,25.4,0,0-6.9.8-15,2.9v8.5c0,.5,0,1-.1,1.4,4.5,20.2,33.3,13.8,65-21.7,6.9,7.8,33.3,21.8,33.3,21.8l10.5-10.1s-18-16.3-30.3-28.1h0Z"/>
        <path class="st7" d="M307.8,395.8c-.2,0-.4.1-.6.1-.4,3.7-.2,7,.4,9.7,0-.5.1-.9.1-1.4v-8.5h0Z"/>
        <polygon class="st8" points="419.5 395.7 408.1 410.1 403.2 406.9 414.9 391.6 419.5 395.7"/>
      </g>
      <g>
        <path class="st9" d="M308.9,372.9c.1,0,.2.1.3.2.2.1.4.4.5.5,0,.1.1.1.1.2,0,0,0-.1,0-.2,0-.2-.1-.5-.2-.8-.3,0-.6,0-.8,0h0Z"/>
        <path class="st0" d="M334.6,361.7c-2.6,1.5-5.3,3-7.9,4.3-2.7,1.4-5.3,2.8-8,3.9-2.6,1.2-5.4,2.2-7.7,2.7-.5.1-.9.2-1.3.2,0,.3.1.6.2.8,0,0,0,.1,0,.2,0,0,0-.1-.1-.2-.1-.1-.3-.4-.5-.5-.1,0-.2-.1-.3-.2-.2,0-.3,0-.4,0,0,0,0,0,.1,0,0,0,.1,0,.2,0,.2,0,.5,0,.8,0,0-.2-.1-.5-.1-.8-.1-.6-.2-1.3-.3-2-.2-1.4-.3-2.8-.4-4.3-.2-3-.4-6-.6-9l-.4-9.1v36.1c1.2,0,2.2,0,3.1-.2,1.1-.2,2-.5,2.9-.8,1.8-.6,3.4-1.3,4.9-2.1,1.5-.8,3-1.6,4.4-2.4,5.6-3.5,10.5-7.3,15.2-11.7l-3.7-5h0Z"/>
        <path class="st0" d="M307.4,338.6l-12.5.4c.1,6.3.4,12.5,1,18.7.3,3.1.6,6.3,1.1,9.5.2,1.6.5,3.2.8,4.9.2.8.3,1.7.6,2.5.2.9.5,1.8.9,2.9l.4.9c.2.4.4.8.7,1.2.5.8,1.3,1.6,2.1,2.2.8.6,1.7,1.1,2.6,1.4.8.3,1.6.5,2.4.5.2,0,.4,0,.6,0v-36.1l-.4-9.1h0Z"/>
        <path class="st8" d="M307.8,326.9v24.5l4.7-.4s8.1-22.4-4.7-24.2Z"/>
        <path class="st8" d="M304.3,326.9c-4.7.5-11.8,5-12,25.8l15.5-1.2v-24.5c-1-.1-2.2-.2-3.5,0h0Z"/>
        <path class="st7" d="M351.5,351.1l-7.5.5c-.8,0-1.7.8-1.9,1.7l-3.5,16.5c-.2.9.4,1.5,1.2,1.5l7.5-.5c.8,0,1.7-.8,1.9-1.7l3.5-16.5c.2-.9-.4-1.5-1.2-1.5Z"/>
        <path class="st9" d="M335.2,361.3l6.2-2.2-1.5,9.7s-6.9,1.5-7.5-2.2l1-3.3c.3-1,1-1.8,1.8-2.1h0Z"/>
        <polygon class="st0" points="348.5 360 345.8 368.6 339.9 368.9 341.4 359.1 348.5 360"/>
      </g>
    </g>
  </g>
  <g id="Character_1">
    <g>
      <path class="st8" d="M133.4,155.9c6.4,14.9-4.2,21.4-4.1,39.7,0,10.8,15.1,12.2,25.9,9v-62c-10.5-4.5-25.6,4.6-21.8,13.3h0Z"/>
      <path class="st8" d="M169.2,182.7s-2.8,4.9-6.5.9,12.6-27.6-.1-33.2c-1.7-4-4.4-6.5-7.4-7.8v62c3.3-1,6.3-2.4,8.3-4,9.5-8,5.8-17.9,5.8-17.9Z"/>
      <polygon class="st12" points="142.4 370.3 133.5 378.4 150.7 398 155.2 395.4 155.2 389.8 142.4 370.3"/>
      <polygon class="st12" points="155.2 389.8 155.2 395.4 157.9 393.9 155.2 389.8"/>
      <path class="st8" d="M149.9,396.2c-.4.3-.7.7-.8,1.2-.7,2.7-1.7,5.7-6,10.7-1,1.1,1.1,3.5,3.9,1.4,2.6-2,6.2-5,8.3-6.7v-10.7l-5.3,4.1h0Z"/>
      <path class="st8" d="M162.8,397.3c.6-.5.8-1.4.2-1.9l-4.9-4.8c-.2-.2-.6-.2-.8,0l-2.1,1.6v10.7c.1-.1.3-.2.4-.3,3.2-2.5,4.6-3.3,7.2-5.2h0Z"/>
      <path class="st7" d="M148.2,399.2c-.6.5-1.3.9-1.9.8-.4,0-.6-.2-.8-.5-.1-.2-.1-.4,0-.6.5-1,4.1-1.8,4.5-1.9,0,0,.2,0,.2,0,0,0,0,.2,0,.2-.5.5-1.2,1.2-1.9,1.8h0ZM146.1,398.8c-.1,0-.2.2-.2.3,0,0,0,.2,0,.2.1.2.3.3.5.3.6,0,1.8-.7,3.1-2.1-1.2.3-2.7.8-3.4,1.2h0Z"/>
      <path class="st7" d="M150.1,397.4s0,0,0,0c-1,.3-3.6.1-4-.7,0-.2-.1-.5.3-.9.3-.3.6-.4,1.1-.4,1.3,0,2.7,1.5,2.8,1.6,0,0,0,.1,0,.2,0,0,0,0,0,.1h0ZM146.6,396.1s0,0,0,0c-.3.2-.2.4-.2.4.2.5,2.1.7,3.2.5-.4-.4-1.4-1.2-2.3-1.2s-.5,0-.7.2h0Z"/>
      <path class="st12" d="M131.8,197.1c-.5,2.1-1,4.1-1.6,6.1-.6,2-1.2,4-1.9,5.9-1.4,3.9-3,7.8-4.9,11.5l-1.5,2.8c-.5.9-1.1,1.8-1.6,2.8l-.9,1.4c-.3.5-.5.9-.9,1.4-.2.3-.4.5-.7.8-.3.3-.5.6-1.1,1.1-.4.2-.7.5-1.7.8-.2,0-.6.1-.9.1s-.7,0-1.1-.1c-.7-.2-1.4-.7-1.7-1-.7-.8-.8-1.4-1-1.7-.1-.4-.2-.7-.2-.9,0-.9,0-1.6,0-2.2,0-.6.2-1.2.3-1.7.2-1.1.5-2.1.7-3.1.6-2,1.2-4,2-5.9l3.9.9-.3,5.9c0,1,0,1.9,0,2.9,0,.5,0,.9,0,1.3,0,.4,0,.8.1.9,0,0,0,0,0-.2,0-.1,0-.4-.6-1-.2-.3-.8-.7-1.4-.8-.3,0-.6-.1-.9-.1-.2,0-.6,0-.7,0-.8.2-.9.4-1.1.5-.2.1-.1,0,0,0l.2-.4,1.3-2.4c.4-.8.9-1.7,1.3-2.6l1.2-2.6c1.6-3.5,3-7.1,4.2-10.9.6-1.9,1.2-3.7,1.8-5.6.6-1.9,1.1-3.8,1.5-5.6l8,1.8h0Z"/>
      <path class="st12" d="M128.4,186.7c-2.9.5-7.5,18.9-7.5,18.9l6.7,5.1s6.7-13.3,7-19.3c.2-4.3-4-5.1-6.2-4.7h0Z"/>
      <path class="st12" d="M117.9,216.9l-1.1-9.2-5.2,7.7s.7,3.2,3.9,3.7l2.5-2.2h0Z"/>
      <polygon class="st12" points="145.1 381.8 146.6 409.7 154.6 409.4 155.2 399.4 155.2 381.9 145.1 381.8"/>
      <polygon class="st12" points="155.2 381.9 155.2 399.4 156.2 381.9 155.2 381.9"/>
      <path class="st8" d="M155,407.1h-9c-.5,0-1,.2-1.4.6-2.2,1.8-3.3,3.6-9.7,5-1.4.3-1.4,3.6,1.9,3.6,3.4,0,6.9-.3,9.3-.3,3.9,0,5.4.1,8.6.2.8,0,1.4-.7,1.4-1.4l-.5-7.1c0-.3-.3-.5-.6-.5Z"/>
      <path class="st7" d="M141.6,185.8c-6.4,0-13.7.9-13.7.9,0,0-4,1-4,48.3,12.2,1.1,24.8,2.2,31.3,2.8v-50.8c-4.9-.7-9.1-1.2-13.6-1.1h0Z"/>
      <path class="st7" d="M169.5,190.1s-6.5-2.1-13.3-3c-.3,0-.7,0-1-.1v50.8c.3,0,.5,0,.8,0,1.6-13.2,2.9-21.3,13.5-47.7h0Z"/>
      <path class="st4" d="M161.5,211.6c.9-2.9,2-6.1,3.4-9.7l-1.7-5.8c-1.3,3.1-2.6,10.1-1.7,15.5h0Z"/>
      <polygon class="st12" points="116.8 207.7 111.5 215.4 117.9 215 121.3 208 116.8 207.7"/>
      <path class="st8" d="M120.1,225.4h6.1c.8,0,1.5-.8,1.4-1.7l-1.9-13.4c0-.7-.7-1.2-1.4-1.2h-6.1c-.8,0-1.5.8-1.4,1.7l1.9,13.4c0,.7.7,1.2,1.4,1.2Z"/>
      <path class="st12" d="M155.2,178.8v-6.9l-8,5.4c.3,3.8-.2,7.7-5.6,8.5,0,0-4.7,3.1-1.3,10.9,7.6-3.2,12.8-7.1,14.9-8.8v-3c-.4-1.7-.3-3.9,0-6.1Z"/>
      <path class="st12" d="M157.4,170.4l-2.2,1.5v6.9c.5-3,1.4-6.2,2.2-8.4Z"/>
      <path class="st12" d="M155.2,184.9v3c.6-.5,1-.8,1-.8-.5-.6-.8-1.3-1-2.2Z"/>
      <path class="st8" d="M135.4,165.1c-.8,13.9-9.2,17.9-7.2,25,2.8,10,14.1,2.2,14.1,2.2,0,0-6.1,2-6.5-2.9-.3-4,13.9-3.4,9.9-12.8-2.5-6-10.2-11.5-10.2-11.5h0Z"/>
      <path class="st4" d="M154.5,173.9l-7.3,3.4c0,.9.1,1.8,0,2.6,1.5.1,5.4-1,6.9-3.5.6-.9.4-2.1.3-2.6Z"/>
      <path class="st12" d="M142.3,149c-7.2,4.3-6.4,16.1-3.7,22.8,2.8,6.9,11.3,8.1,16.5,3v-24.5c-3.3-3.1-8.4-4-12.9-1.3h0Z"/>
      <path class="st12" d="M156.6,173.2c3.3-4.6,2.9-7.9,2.1-15.8-.3-2.9-1.6-5.3-3.5-7.1v24.5c.5-.5.9-1,1.4-1.6h0Z"/>
      <path class="st8" d="M155.2,160.2v-11.7c-5-1.7-8.2,4.9,0,11.7Z"/>
      <path class="st8" d="M156.9,149.4c-.6-.4-1.2-.7-1.8-.9v11.7c.4.4.9.7,1.4,1.1,11,8,7.4-7.1.4-11.9h0Z"/>
      <path class="st8" d="M153.6,147.1c2.6,2.3-12.7,10.8-21.1,8-8.3-2.8-1.6-9.2,1.4-10-2.6,2.5,1.9,6.3,4.2,3.9s10.4-6.6,15.5-2h0Z"/>
      <g>
        <path class="st7" d="M123.9,234.9s-16.9,71.7-15.4,89.8c1.7,21.2,24.9,55.3,24.9,55.3l10.6-9.6s-10.6-28-18.4-46.1c2.5-18.2,24.6-69.6,24.6-86.9l-26.3-2.3h0Z"/>
        <path class="st5" d="M123.9,234.9s-16.9,71.7-15.4,89.8c1.7,21.2,24.9,55.3,24.9,55.3l10.6-9.6s-10.6-28-18.4-46.1c2.5-18.2,24.6-69.6,24.6-86.9l-26.3-2.3h0Z"/>
      </g>
      <polygon class="st7" points="145.9 371.8 133.3 381.1 130.1 378.7 143.9 367.8 145.9 371.8"/>
      <path class="st4" d="M136.4,266.5c-9.3,12.9-9.8,36.7-9.2,50,3.2-12.3,9.9-30.6,15.3-47.1-.1-6.3-1.7-9-6.1-3h0Z"/>
      <g>
        <path class="st7" d="M129.9,235s6.2,61.9,8.3,82.8c2.5,24.8,6.1,64.6,6.1,64.6l10.9-.5v-144.3l-25.3-2.7h0Z"/>
        <path class="st7" d="M156.9,326c.4-29.5,4.7-69.6-.9-88.2h-.8c0,0,0,144.2,0,144.2h1s2.6-33.8.7-56h0Z"/>
      </g>
      <path class="st5" d="M129.9,235s6.2,61.9,8.3,82.8c2.5,24.8,6.1,64.6,6.1,64.6l10.9-.5v-144.3l-25.3-2.7h0Z"/>
      <path class="st5" d="M156.9,326c.4-29.5,4.7-69.6-.9-88.2h-.8c0,0,0,144.2,0,144.2h1s2.6-33.8.7-56h0Z"/>
      <polygon class="st7" points="142.4 379.4 143.4 383.7 155.2 384 155.2 379 142.4 379.4"/>
      <polygon class="st7" points="157.9 379 155.2 379 155.2 384 157.1 384.1 157.9 379"/>
      <path class="st8" d="M146.4,161.7c.1.6-.2,1.2-.6,1.3-.4,0-.8-.4-.9-1-.1-.6.2-1.2.6-1.3.4,0,.8.4.9,1Z"/>
      <path class="st8" d="M139.2,162.8c.1.6-.2,1.2-.6,1.3-.4,0-.8-.4-.9-1-.1-.6.2-1.2.6-1.3.4,0,.8.4.9,1Z"/>
      <path class="st8" d="M138.5,161.8l-1.6-.2s1,1.1,1.6.2Z"/>
      <path class="st0" d="M141.6,163.4s-.6,2.9-1.6,4.4c1,.6,2.3,0,2.3,0l-.7-4.5h0Z"/>
      <path class="st8" d="M146.4,169.7c-.3.1-.7.2-1.1.3-.1,0-.2,0-.2-.2,0-.1,0-.2.2-.2,2.8-.4,3.8-2.6,3.8-2.6,0-.1.2-.1.2,0,.1,0,.1.2.1.2,0,0-.8,1.8-3,2.6h0Z"/>
      <path class="st12" d="M157.6,159.9c-1.9.6-2.4,3.4-2.1,5.1.3,1.9,1.9,3.1,3.5,1.7,1-.9,1.9-2.3,2-4,.1-1.9-1.4-3.4-3.3-2.8h0Z"/>
      <path class="st8" d="M149.7,157.8c-.1,0-.2,0-.3,0-1.4-1-2.7-.4-2.7-.4-.2,0-.4,0-.5-.2,0-.2,0-.4.2-.5,0,0,1.7-.7,3.4.5.2.1.2.4,0,.5,0,0-.1.1-.2.1h0Z"/>
      <path class="st8" d="M136.1,160.1c0,0-.2,0-.3,0-.2,0-.3-.3-.2-.5.9-1.9,2.6-2.2,2.7-2.2.2,0,.4.1.4.3s-.1.4-.3.4c0,0-1.4.2-2.1,1.8,0,.1-.1.2-.2.2h0Z"/>
      <path class="st12" d="M148.7,225.7c-2.4-.4-4.9-.9-7.4-1.4-2.5-.5-4.9-1-7.4-1.6l-1.2,3.9c2.4,1,4.8,1.9,7.2,2.7,2.4.8,4.9,1.6,7.4,2.3,2.5.7,5.1,1.2,7.7,1.7v-6.8c-2.1-.2-4.3-.5-6.5-.8h0Z"/>
      <path class="st12" d="M159.4,233.6c.7,0,1.5,0,2.4-.1.8-.1,1.8-.3,2.8-.7.6-.2,1.1-.6,1.8-1.1.3-.3.6-.6.9-1,.1-.2.3-.4.4-.6.1-.2.2-.5.2-.5.3-.6.6-1.3.8-2,.5-1.3.9-2.6,1.3-4,.7-2.7,1.2-5.3,1.5-8,.3-2.7.5-5.3.5-8,0-1.3,0-2.6,0-4,0-1.4-.1-2.6-.3-4.1l-8.1.8c0,1.1.1,2.4.2,3.5,0,1.2,0,2.4,0,3.6,0,2.4,0,4.8-.3,7.2-.2,2.4-.5,4.7-1,7-.2,1.1-.5,2.2-.9,3.3-.1.4-.3.8-.4,1.1.1,0,.2,0,.3-.1,0,0,.1,0,.1,0,0,0,0,0-.1,0t0,0c0,0-.1.1-.2.2v.2c-.1,0-.2.2-.2,0,0-.1.1-.3.1-.4-.1,0-.3,0-.4.1-.4,0-.9.1-1.4.2-1.1,0-2.2,0-3.4,0-.3,0-.5,0-.8,0v6.8h0c1.4.2,2.7.3,4.2.4h0Z"/>
      <path class="st12" d="M161.1,226.7v-.2c.2-.1.3-.2.4-.2,0,0,0,0,0,0,0,0-.2,0-.3.1,0,.1-.1.3-.1.4,0,.1,0,0,0,0h0Z"/>
      <path class="st12" d="M169.5,190.1c-2.5-1.6-7.4,2.6-6.8,7,.9,6.5.9,16.5.9,16.5l8.1-1.6s1.2-19.6-2.3-21.9h0Z"/>
      <path class="st7" d="M141.7,408.1c-.2-.2-.2-.5-.2-.9,0-.3.3-.5.4-.5,1-.4,3.3,1.1,3.5,1.3,0,0,0,.1,0,.2,0,0,0,.1-.1.1-1.1.2-2.9.6-3.6-.1,0,0,0,0,0,0h0ZM144.8,408c-.9-.6-2.3-1.3-2.8-1,0,0-.1,0-.2.2,0,.3,0,.5.1.7.4.4,1.4.4,2.8.1h0Z"/>
      <path class="st7" d="M144.3,407.4c-.6-.7-1-1.6-.9-2.2,0-.2.2-.5.7-.5.3,0,.6,0,.8.2.8.8.7,3.1.7,3.2,0,0,0,.1-.1.2,0,0-.1,0-.2,0-.3-.2-.6-.5-.9-.9h0ZM144.7,405.3s0,0,0,0c-.1-.1-.3-.2-.5-.2-.2,0-.3.1-.3.2-.1.5.7,1.8,1.4,2.4,0-.7,0-1.9-.5-2.4h0Z"/>
      <g>
        <path class="st10" d="M123.8,232.8c-.3,0-.6.1-.6.3l-.2,2.9c0,.2.2.4.5.4l31.7,2.8v-3.6l-31.4-2.8h0Z"/>
        <path class="st10" d="M157.1,238.9l-.4-3c0-.1-.2-.3-.5-.3h-1.1c0-.1,0,3.5,0,3.5h1.3c.4.1.7,0,.6-.3h0Z"/>
      </g>
      <g>
        <path class="st7" d="M151.8,239.2h.9c.2.1.3,0,.3,0l.2-3.8c0-.1-.1-.2-.3-.2h-.9c-.2-.1-.3,0-.3,0l-.2,3.8c0,.1.1.2.3.2Z"/>
        <path class="st5" d="M151.8,239.2h.9c.2.1.3,0,.3,0l.2-3.8c0-.1-.1-.2-.3-.2h-.9c-.2-.1-.3,0-.3,0l-.2,3.8c0,.1.1.2.3.2Z"/>
      </g>
      <g>
        <path class="st7" d="M125.9,236.9h.9c.2.1.3,0,.3,0l.2-3.8c0-.1-.1-.2-.3-.2h-.9c-.2-.1-.3,0-.3,0l-.2,3.8c0,.1.1.2.3.2Z"/>
        <path class="st5" d="M125.9,236.9h.9c.2.1.3,0,.3,0l.2-3.8c0-.1-.1-.2-.3-.2h-.9c-.2-.1-.3,0-.3,0l-.2,3.8c0,.1.1.2.3.2Z"/>
      </g>
      <g>
        <path class="st7" d="M138.8,238.1h.9c.2.1.3,0,.3,0l.2-3.8c0-.1-.1-.2-.3-.2h-.9c-.2-.1-.3,0-.3,0l-.2,3.8c0,.1.1.2.3.2Z"/>
        <path class="st5" d="M138.8,238.1h.9c.2.1.3,0,.3,0l.2-3.8c0-.1-.1-.2-.3-.2h-.9c-.2-.1-.3,0-.3,0l-.2,3.8c0,.1.1.2.3.2Z"/>
      </g>
      <path class="st12" d="M135.2,223.1l-5-6.7-2.1,8s3.7,3.2,6.9,2l.2-3.3Z"/>
      <polygon class="st12" points="123.8 215 122.5 221.7 129.2 225.2 130.3 216.4 123.8 215"/>
      <path class="st8" d="M145.7,160.7l-1.6-.2s1,1.1,1.6.2Z"/>
    </g>
  </g>
</svg>